<svg width="389" height="376" viewBox="0 0 389 376" fill="none" xmlns="http://www.w3.org/2000/svg">
<path d="M174.68 263.251C173.556 262.577 172.44 261.883 171.307 261.226C170.724 260.856 170.102 260.547 169.454 260.303C167.702 259.73 165.95 259.201 164.139 258.584L163.452 258.345L162.727 258.073L162.544 258.003L162.499 257.986L162.584 258.029L162.746 258.102C162.929 258.178 162.978 258.191 162.899 258.181C162.683 258.143 162.469 258.091 162.258 258.025C161.731 257.866 161.228 257.631 160.769 257.328C160.614 257.224 160.464 257.114 160.32 256.996C160.178 256.88 160.043 256.757 159.915 256.628C159.713 256.425 159.527 256.209 159.359 255.981C159.022 255.521 158.763 255.016 158.592 254.488C158.338 253.687 158.272 252.854 158.399 252.048C158.544 251.169 158.85 250.329 159.303 249.565C161.288 245.96 163.477 242.471 165.642 238.969C166.042 238.441 166.564 238.008 167.173 237.7C167.751 237.354 168.887 237.565 170.239 238.065C172.209 238.794 173.946 240.184 173.97 241.157C173.965 241.735 173.725 242.277 173.301 242.672C171.531 244.527 170.283 246.781 169.662 249.246C169.482 249.938 169.405 250.721 168.808 251.155C167.929 251.844 167.203 252.69 166.669 253.649L166.558 253.836C166.542 253.869 166.53 253.899 166.53 253.899L166.263 253.796C166.155 253.753 166.044 253.713 165.933 253.677C165.718 253.602 165.517 253.539 165.32 253.487C164.999 253.395 164.67 253.335 164.34 253.309C163.813 253.26 163.636 253.427 163.781 253.327L163.789 253.319L163.793 253.315L163.795 253.313C163.677 253.417 164.06 253.079 163.531 253.546L163.532 253.545L163.541 253.536C163.558 253.518 163.574 253.498 163.587 253.477C163.673 253.346 163.743 253.206 163.794 253.059L163.88 252.828L163.982 252.513C164.026 252.374 164.065 252.235 164.101 252.094L164.324 251.263L164.419 250.864L164.425 250.869L164.439 250.88C164.469 250.892 164.483 250.901 164.533 250.919C164.657 250.968 164.886 251.037 165.217 251.169L165.483 251.282L165.63 251.352C165.68 251.376 165.736 251.404 165.73 251.403L165.853 251.477C166.017 251.576 166.182 251.671 166.351 251.764C166.72 251.954 167.081 252.133 167.47 252.309C168.237 252.661 169.026 252.999 169.794 253.391C172.542 254.785 175.307 256.226 178.093 257.608C179.204 258.163 180.074 259.145 180.476 261.004C180.671 261.836 180.106 263.237 179.379 263.575L178.996 263.743C178.883 263.777 178.766 263.802 178.646 263.816C178.417 263.852 178.19 263.877 177.966 263.891C177.533 263.918 177.095 263.907 176.659 263.858C175.987 263.708 175.337 263.467 174.729 263.142L174.68 263.251Z" fill="white"/>
<path d="M225.172 228.804C229.012 227.097 232.805 225.313 236.482 223.378C240.144 221.425 243.72 219.36 247.116 217.104C250.478 214.871 253.642 212.395 256.582 209.695C257.277 209.001 258.008 208.347 258.679 207.623L260.651 205.398C261.967 203.921 263.193 202.375 264.325 200.765C264.95 199.933 265.523 199.066 266.039 198.167L266.856 196.844C267.143 196.412 267.402 195.964 267.633 195.501L269.008 192.728L269.354 192.034L269.629 191.314L270.18 189.873L270.733 188.432C270.921 187.952 271.02 187.445 271.169 186.954L271.58 185.468C271.733 184.978 271.858 184.479 271.954 183.973L272.491 180.934C272.629 179.915 272.676 178.881 272.772 177.856C273.069 172.321 272.378 166.722 270.727 161.289C269.915 158.547 268.892 155.852 267.668 153.227C267.515 152.903 267.375 152.552 267.212 152.249L266.728 151.334L266.248 150.418L265.694 149.532C265.34 148.932 264.952 148.349 264.534 147.785C264.106 147.225 263.735 146.63 263.256 146.101C256.133 137.287 244.299 131.514 232.899 131.805C230.039 131.875 227.22 132.267 224.5 132.973C221.786 133.695 219.188 134.711 216.754 135.999C211.912 138.513 207.885 142.159 205.033 146.608C204.363 147.588 203.832 148.651 203.451 149.771C203.112 150.567 202.992 151.442 203.102 152.318C203.13 152.484 203.174 152.648 203.233 152.808C203.286 152.952 203.354 153.093 203.436 153.227C203.614 153.536 203.848 153.815 204.126 154.051C204.874 154.656 205.759 155.087 206.701 155.305C207.733 155.567 208.799 155.616 209.826 155.45C210.879 155.253 211.861 154.845 212.708 154.253C214.56 153.037 216.026 150.992 217.001 148.676C217.599 147.212 218.02 145.681 218.256 144.111C218.482 142.517 218.528 140.895 218.394 139.271C218.106 135.953 217.182 132.674 215.669 129.595C214.118 126.453 212.09 123.519 209.65 120.89C208.427 119.563 207.096 118.327 205.669 117.195C204.258 116.046 202.763 114.993 201.197 114.047C198.085 112.142 194.71 110.679 191.189 109.71C189.415 109.272 187.622 108.92 185.82 108.656L183.088 108.417L182.404 108.355C182.177 108.344 181.948 108.349 181.72 108.346L180.352 108.334C176.686 108.309 173.062 108.742 169.575 109.62C168.692 109.813 167.824 110.052 166.974 110.333C166.107 110.573 165.255 110.854 164.423 111.176C163.592 111.502 162.748 111.801 161.926 112.145L159.509 113.27C156.338 114.861 153.365 116.759 150.635 118.934C147.954 121.146 145.542 123.63 143.441 126.345C139.28 131.77 136.813 138.288 135.632 145.104C134.426 151.932 134.624 159.063 135.572 166.116C136.6 173.202 138.404 180.212 140.955 187.034C143.9 195.328 147.725 203.368 152.371 211.027C156.809 218.263 159.872 222.907 161.538 226.038C162.756 228.314 162.299 228.704 160.403 227.347C159.929 227.008 159.366 226.56 158.718 226.005C158.09 225.437 157.386 224.756 156.603 223.97C154.716 222.023 152.955 219.971 151.332 217.829C148.85 214.516 146.575 211.075 144.522 207.527C142.45 203.914 140.585 200.208 138.938 196.426C135.171 187.864 132.519 178.96 131.042 169.917C129.593 160.891 129.367 151.681 131.131 142.777C132.007 138.301 133.486 133.981 135.531 129.918C137.623 125.849 140.35 122.124 143.629 118.859C150.183 112.295 158.566 107.576 167.937 105.177L169.895 104.723C170.223 104.652 170.546 104.562 170.88 104.506L171.886 104.347C173.225 104.103 174.582 103.927 175.949 103.82L178.01 103.646C178.697 103.585 179.397 103.618 180.091 103.602L182.178 103.591C182.875 103.626 183.574 103.688 184.271 103.737C184.969 103.795 185.667 103.831 186.362 103.91L188.441 104.241C189.133 104.363 189.823 104.441 190.512 104.603C191.2 104.772 191.896 104.902 192.571 105.106C195.251 105.839 197.854 106.844 200.333 108.102C202.277 109.078 204.145 110.193 205.919 111.438C207.695 112.67 209.38 114.018 210.963 115.469C214.158 118.366 216.907 121.667 219.121 125.265C220.232 127.08 221.183 128.973 221.962 130.921C222.739 132.892 223.323 134.915 223.705 136.965C224.487 141.138 224.308 145.366 223.179 149.359C222.608 151.419 221.724 153.375 220.555 155.168C219.315 157.081 217.649 158.705 215.664 159.939C214.602 160.584 213.443 161.085 212.219 161.431C209.71 162.084 207.012 162.047 204.435 161.323C203.103 160.954 201.83 160.391 200.662 159.654C199.402 158.844 198.318 157.806 197.481 156.606C197.049 155.979 196.692 155.311 196.415 154.617C196.155 153.941 195.971 153.246 195.866 152.542C195.677 151.225 195.725 149.901 196.008 148.627C196.251 147.485 196.638 146.382 197.162 145.341C197.628 144.378 198.171 143.454 198.788 142.575L199.661 141.284C199.974 140.869 200.306 140.469 200.629 140.063C201.924 138.449 203.379 136.957 204.975 135.606C207.336 133.623 209.938 131.905 212.735 130.483C213.442 130.147 214.127 129.773 214.853 129.474L217.032 128.577L219.275 127.815C220.021 127.558 220.802 127.386 221.564 127.17C224.649 126.384 227.838 125.925 231.072 125.802C234.319 125.693 237.591 125.944 240.822 126.55C247.27 127.785 253.431 130.345 258.855 134.043C261.575 135.874 264.072 137.994 266.29 140.356C268.532 142.725 270.472 145.328 272.065 148.106L273.071 150C273.384 150.626 273.647 151.24 273.937 151.86C274.529 153.089 274.994 154.365 275.514 155.621C275.98 156.894 276.432 158.174 276.841 159.464L277.399 161.414L277.677 162.389C277.76 162.716 277.826 163.047 277.901 163.376C279.159 168.654 279.581 174.031 279.154 179.329C278.705 184.624 277.427 189.781 275.363 194.636C273.216 199.394 270.482 203.871 267.214 207.982L264.653 210.936C264.217 211.422 263.817 211.932 263.351 212.398L261.948 213.794C261.033 214.749 260.031 215.601 259.043 216.47C258.074 217.362 257.026 218.154 255.998 218.971C251.861 222.148 247.471 225.03 242.86 227.596C233.725 232.639 224.151 236.994 214.221 240.622C210.294 242.103 206.369 243.436 202.475 244.645C198.585 245.863 194.717 246.937 190.902 247.895C183.639 249.746 176.229 251.145 168.716 252.084C165.437 252.461 163.827 252.336 163.917 251.79C163.932 251.644 164.07 251.539 164.286 251.304C164.598 251.059 164.932 250.84 165.286 250.649C165.724 250.401 166.267 250.126 166.915 249.823C167.239 249.671 167.59 249.513 167.967 249.349C168.157 249.27 168.348 249.175 168.555 249.104C168.763 249.039 168.979 248.973 169.201 248.904C179.274 245.86 189.75 242.472 199.983 238.789C208.395 235.764 217.006 232.629 225.16 228.945C225.162 228.898 225.165 228.855 225.172 228.804Z" fill="white"/>
</svg>
