<svg width="76" height="86" viewBox="0 0 76 86" fill="none" xmlns="http://www.w3.org/2000/svg">
<g clip-path="url(#clip0_1116_661)">
<path d="M36.69 50.0657C37.1809 53.1694 38.0083 56.2207 39.1471 59.1233L39.1537 59.1401C39.378 59.7117 39.1683 60.3667 38.6854 60.6032C38.5018 60.6931 38.3056 60.7096 38.1201 60.6641C33.1518 59.4538 28.2667 57.6977 23.5437 55.4402L22.8119 55.0884L22.4459 54.9124L22.0833 54.7259L20.6323 53.9797C19.6747 53.4549 18.7114 52.9434 17.7682 52.3805C16.816 51.8404 15.8849 51.2493 14.9487 50.6735L13.5615 49.7719L13.2147 49.5471L12.8726 49.3126L12.1883 48.8444C11.4633 48.3611 10.7577 47.8387 10.0468 47.327C9.68931 47.0748 9.342 46.8035 8.99192 46.5374L7.94275 45.737C7.5522 45.439 7.43026 44.8396 7.67039 44.3981C7.69553 44.3519 7.72366 44.3092 7.75429 44.2702L7.76803 44.2532L7.91184 44.0728C8.04592 43.9046 8.22229 43.8081 8.40715 43.7839L8.41325 43.7832C11.0349 43.4427 13.6354 42.9479 16.2018 42.3018L15.8006 43.9682C10.2033 37.1891 6.2017 28.667 4.37893 19.6124C4.25856 19.0144 4.57447 18.4368 5.08455 18.3222C5.47699 18.234 5.87003 18.4456 6.08528 18.8203L6.09046 18.8298C8.81084 23.5895 12.1008 27.9246 15.7364 31.8098C19.376 35.6944 23.3662 39.1383 27.5922 42.0966L28.7809 42.9169L27.2948 44.1584C26.2119 38.6213 25.987 32.9025 26.6355 27.3542C26.7123 26.6968 27.2364 26.2589 27.806 26.3762C28.0998 26.4366 28.3482 26.6328 28.5095 26.8989L28.5138 26.906C30.5413 30.2747 32.8686 33.4232 35.3673 36.3792C37.8687 39.3348 40.5459 42.0998 43.342 44.69C46.1399 47.2784 49.0608 49.6883 52.075 51.9165C55.0901 54.1423 58.2012 56.1865 61.3987 57.992L59.9751 59.3861C59.6366 58.04 59.4715 56.7507 59.3283 55.4707C59.1898 54.1922 59.0907 52.9279 58.998 51.6679C58.9488 50.9988 59.3745 50.4331 59.9488 50.4042C60.2967 50.3868 60.6193 50.5703 60.8306 50.8664L60.8353 50.8732C62.5217 53.2681 64.2025 55.6507 65.957 57.94C67.7092 60.2325 69.5453 62.451 71.4074 64.6564L71.412 64.6619C71.8209 65.1461 71.8282 65.9074 71.4283 66.3623C71.2754 66.5363 71.0853 66.6401 70.8856 66.675L69.9603 66.8382C65.9083 67.5325 61.7589 67.8474 57.6966 67.8655C56.798 67.8718 55.9715 67.8449 55.2307 67.8064L55.1563 67.8025C54.7138 67.7795 54.356 67.3446 54.357 66.8312C54.3578 66.4604 54.5462 66.1499 54.817 66.0147C57.0412 64.9094 58.4842 63.9383 59.5421 63.3031C60.0395 63.0042 60.326 62.896 60.4194 62.9855C60.511 63.0727 60.4107 63.3559 60.1103 63.8051C59.8087 64.2516 59.3064 64.8712 58.56 65.5697C57.8154 66.2687 56.8216 67.0305 55.6008 67.7622L55.1636 65.8687C55.1727 65.8684 55.1843 65.868 55.1959 65.8676C58.625 65.7897 62.3613 65.5674 65.8761 65.1562C67.4289 64.9748 68.976 64.7498 70.5113 64.4824L70.0731 66.1772C68.2092 63.9452 66.3555 61.6875 64.575 59.3455C62.7918 57.0054 61.0979 54.597 59.4109 52.2017L60.8571 51.5762C60.9487 52.822 61.0472 54.0644 61.1813 55.2893C61.3172 56.5103 61.4837 57.729 61.7675 58.8408L61.7686 58.8448C61.8999 59.3594 61.6515 59.8827 61.2137 60.0136C61.0173 60.0723 60.8151 60.0415 60.6411 59.9438C57.171 57.9918 53.8108 55.7858 50.557 53.3812C47.3041 50.9745 44.1571 48.3666 41.139 45.5558C40.6843 45.1275 40.2214 44.7054 39.7669 44.2671C39.3173 43.8215 38.8662 43.3744 38.4144 42.9265L37.7364 42.2536L37.0758 41.5551C36.6358 41.0884 36.1959 40.6217 35.7567 40.1558C34.0424 38.2382 32.3716 36.2837 30.9074 34.234C29.4738 32.3104 28.1649 30.2578 26.8938 28.1715L28.6092 27.7622C27.9508 33.0182 28.1469 38.4758 29.1712 43.7545L29.1728 43.7626C29.2824 44.3274 28.9805 44.8692 28.4985 44.9727C28.2775 45.0201 28.0557 44.9662 27.8712 44.8406C26.2463 43.7308 24.6435 42.5745 23.0846 41.3377C22.6912 41.0351 22.3113 40.7089 21.9241 40.3955C21.5383 40.0798 21.1517 39.7652 20.7762 39.4322L19.6414 38.4473L18.5289 37.4278C18.3443 37.2567 18.1568 37.0899 17.9746 36.9153L17.4306 36.3875C17.0696 36.0334 16.7018 35.6887 16.3467 35.3266C15.6389 34.5988 14.9249 33.8795 14.2426 33.1189C13.545 32.378 12.8832 31.5928 12.2122 30.82C11.8809 30.4286 11.5606 30.0245 11.2346 29.6272L10.748 29.0288L10.2765 28.4139C8.22393 25.75 6.31994 22.9199 4.6159 19.9145L6.11264 19.2301C7.76981 27.6706 11.4457 35.6899 16.5649 42.1467L16.9774 42.6704L16.9909 42.6875C17.2909 43.0684 17.2784 43.6469 16.963 43.9796C16.8619 44.0862 16.7386 44.1553 16.6125 44.1865C13.9869 44.8255 11.3287 45.3092 8.65287 45.6355L9.10646 45.3735L8.96157 45.5527L8.80354 44.2108C17.7431 51.3139 27.8751 56.3296 38.3726 58.8363L37.6965 59.8505C36.2165 56.1203 35.2318 52.151 34.7861 48.1279C34.7436 47.745 34.9751 47.4077 35.3032 47.3745C35.4729 47.3573 35.6369 47.4266 35.76 47.5488C37.0384 48.8283 38.3594 50.0509 39.7255 51.2037C41.26 52.484 42.8178 53.6705 44.3811 54.7744C45.9481 55.8712 47.5269 56.8675 49.0931 57.7972C50.6637 58.7171 52.2318 59.5389 53.7766 60.3035C54.166 60.4851 54.5528 60.6654 54.937 60.8446C55.1296 60.9328 55.3196 61.0293 55.5126 61.1109C55.7054 61.194 55.8975 61.2768 56.089 61.3593C56.4727 61.5216 56.8507 61.6986 57.232 61.8493C57.6135 62.0015 57.9922 62.1526 58.368 62.3025C58.7127 62.4479 59.0157 62.5544 59.2689 62.6632C59.5227 62.7695 59.729 62.8658 59.8877 62.9507C60.2052 63.1205 60.3325 63.2446 60.2674 63.3116C60.2023 63.3785 59.9447 63.3882 59.4928 63.3291C59.2669 63.2995 58.9924 63.2528 58.6695 63.1874C58.3471 63.1195 57.9803 63.0134 57.5636 62.895C52.8518 61.5168 48.0738 59.2241 43.6293 56.274C42.0791 55.2308 40.5451 54.1009 39.0573 52.8729C37.5743 51.6369 36.1307 50.3186 34.7431 48.9286L36.3696 47.9615C36.4504 48.6554 36.5429 49.3447 36.6545 50.0298C36.6664 50.0409 36.6774 50.0515 36.69 50.0657Z" fill="url(#paint0_linear_1116_661)"/>
</g>
<defs>
<linearGradient id="paint0_linear_1116_661" x1="65.5088" y1="58.9733" x2="32.3535" y2="9.92715" gradientUnits="userSpaceOnUse">
<stop stop-color="#7C3AED"/>
<stop offset="1" stop-color="#DE6B48"/>
</linearGradient>
<clipPath id="clip0_1116_661">
<rect width="76.7599" height="65.6835" fill="white" transform="translate(10.5078 85.03) rotate(-97.8694)"/>
</clipPath>
</defs>
</svg>
