<svg width="92" height="126" viewBox="0 0 92 126" fill="none" xmlns="http://www.w3.org/2000/svg">
<circle cx="16.1702" cy="111.503" r="3" transform="rotate(13.1233 16.1702 111.503)" fill="url(#paint0_linear_1116_667)"/>
<circle cx="39.5413" cy="116.952" r="3" transform="rotate(13.1233 39.5413 116.952)" fill="url(#paint1_linear_1116_667)"/>
<circle cx="62.9163" cy="122.401" r="3" transform="rotate(13.1233 62.9163 122.401)" fill="url(#paint2_linear_1116_667)"/>
<circle cx="4.4827" cy="108.778" r="3" transform="rotate(13.1233 4.4827 108.778)" fill="url(#paint3_linear_1116_667)"/>
<circle cx="27.8577" cy="114.228" r="3" transform="rotate(13.1233 27.8577 114.228)" fill="url(#paint4_linear_1116_667)"/>
<circle cx="51.2288" cy="119.677" r="3" transform="rotate(13.1233 51.2288 119.677)" fill="url(#paint5_linear_1116_667)"/>
<circle cx="21.6194" cy="88.1296" r="3" transform="rotate(13.1233 21.6194 88.1296)" fill="url(#paint6_linear_1116_667)"/>
<circle cx="44.9905" cy="93.5786" r="3" transform="rotate(13.1233 44.9905 93.5786)" fill="url(#paint7_linear_1116_667)"/>
<circle cx="68.3655" cy="99.0278" r="3" transform="rotate(13.1233 68.3655 99.0278)" fill="url(#paint8_linear_1116_667)"/>
<circle cx="9.93192" cy="85.405" r="3" transform="rotate(13.1233 9.93192 85.405)" fill="url(#paint9_linear_1116_667)"/>
<circle cx="33.3069" cy="90.8543" r="3" transform="rotate(13.1233 33.3069 90.8543)" fill="url(#paint10_linear_1116_667)"/>
<circle cx="56.678" cy="96.3032" r="3" transform="rotate(13.1233 56.678 96.3032)" fill="url(#paint11_linear_1116_667)"/>
<circle cx="27.0686" cy="64.7566" r="3" transform="rotate(13.1233 27.0686 64.7566)" fill="url(#paint12_linear_1116_667)"/>
<circle cx="50.4397" cy="70.2056" r="3" transform="rotate(13.1233 50.4397 70.2056)" fill="url(#paint13_linear_1116_667)"/>
<circle cx="73.8147" cy="75.6548" r="3" transform="rotate(13.1233 73.8147 75.6548)" fill="url(#paint14_linear_1116_667)"/>
<circle cx="15.3811" cy="62.032" r="3" transform="rotate(13.1233 15.3811 62.032)" fill="url(#paint15_linear_1116_667)"/>
<circle cx="38.7561" cy="67.4812" r="3" transform="rotate(13.1233 38.7561 67.4812)" fill="url(#paint16_linear_1116_667)"/>
<circle cx="62.1272" cy="72.9302" r="3" transform="rotate(13.1233 62.1272 72.9302)" fill="url(#paint17_linear_1116_667)"/>
<circle cx="32.5179" cy="41.3833" r="3" transform="rotate(13.1233 32.5179 41.3833)" fill="url(#paint18_linear_1116_667)"/>
<circle cx="55.889" cy="46.8323" r="3" transform="rotate(13.1233 55.889 46.8323)" fill="url(#paint19_linear_1116_667)"/>
<circle cx="79.2639" cy="52.2815" r="3" transform="rotate(13.1233 79.2639 52.2815)" fill="url(#paint20_linear_1116_667)"/>
<circle cx="20.8304" cy="38.6587" r="3" transform="rotate(13.1233 20.8304 38.6587)" fill="url(#paint21_linear_1116_667)"/>
<circle cx="44.2054" cy="44.1079" r="3" transform="rotate(13.1233 44.2054 44.1079)" fill="url(#paint22_linear_1116_667)"/>
<circle cx="67.5764" cy="49.5569" r="3" transform="rotate(13.1233 67.5764 49.5569)" fill="url(#paint23_linear_1116_667)"/>
<circle cx="37.9671" cy="18.01" r="3" transform="rotate(13.1233 37.9671 18.01)" fill="url(#paint24_linear_1116_667)"/>
<circle cx="61.3382" cy="23.459" r="3" transform="rotate(13.1233 61.3382 23.459)" fill="url(#paint25_linear_1116_667)"/>
<circle cx="84.7132" cy="28.9082" r="3" transform="rotate(13.1233 84.7132 28.9082)" fill="url(#paint26_linear_1116_667)"/>
<circle cx="26.2796" cy="15.2854" r="3" transform="rotate(13.1233 26.2796 15.2854)" fill="url(#paint27_linear_1116_667)"/>
<circle cx="49.6546" cy="20.7346" r="3" transform="rotate(13.1233 49.6546 20.7346)" fill="url(#paint28_linear_1116_667)"/>
<circle cx="73.0257" cy="26.1836" r="3" transform="rotate(13.1233 73.0257 26.1836)" fill="url(#paint29_linear_1116_667)"/>
<circle cx="18.8929" cy="99.8164" r="3" transform="rotate(13.1233 18.8929 99.8164)" fill="url(#paint30_linear_1116_667)"/>
<circle cx="42.264" cy="105.265" r="3" transform="rotate(13.1233 42.264 105.265)" fill="url(#paint31_linear_1116_667)"/>
<circle cx="65.6389" cy="110.715" r="3" transform="rotate(13.1233 65.6389 110.715)" fill="url(#paint32_linear_1116_667)"/>
<circle cx="7.20536" cy="97.0918" r="3" transform="rotate(13.1233 7.20536 97.0918)" fill="url(#paint33_linear_1116_667)"/>
<circle cx="30.5804" cy="102.541" r="3" transform="rotate(13.1233 30.5804 102.541)" fill="url(#paint34_linear_1116_667)"/>
<circle cx="53.9515" cy="107.99" r="3" transform="rotate(13.1233 53.9515 107.99)" fill="url(#paint35_linear_1116_667)"/>
<circle cx="24.3421" cy="76.4431" r="3" transform="rotate(13.1233 24.3421 76.4431)" fill="url(#paint36_linear_1116_667)"/>
<circle cx="47.7132" cy="81.8921" r="3" transform="rotate(13.1233 47.7132 81.8921)" fill="url(#paint37_linear_1116_667)"/>
<circle cx="71.0882" cy="87.3413" r="3" transform="rotate(13.1233 71.0882 87.3413)" fill="url(#paint38_linear_1116_667)"/>
<circle cx="12.6546" cy="73.7185" r="3" transform="rotate(13.1233 12.6546 73.7185)" fill="url(#paint39_linear_1116_667)"/>
<circle cx="36.0296" cy="79.1677" r="3" transform="rotate(13.1233 36.0296 79.1677)" fill="url(#paint40_linear_1116_667)"/>
<circle cx="59.4007" cy="84.6167" r="3" transform="rotate(13.1233 59.4007 84.6167)" fill="url(#paint41_linear_1116_667)"/>
<circle cx="29.7913" cy="53.0698" r="3" transform="rotate(13.1233 29.7913 53.0698)" fill="url(#paint42_linear_1116_667)"/>
<circle cx="53.1624" cy="58.5188" r="3" transform="rotate(13.1233 53.1624 58.5188)" fill="url(#paint43_linear_1116_667)"/>
<circle cx="76.5374" cy="63.968" r="3" transform="rotate(13.1233 76.5374 63.968)" fill="url(#paint44_linear_1116_667)"/>
<circle cx="18.1038" cy="50.3452" r="3" transform="rotate(13.1233 18.1038 50.3452)" fill="url(#paint45_linear_1116_667)"/>
<circle cx="41.4788" cy="55.7944" r="3" transform="rotate(13.1233 41.4788 55.7944)" fill="url(#paint46_linear_1116_667)"/>
<circle cx="64.8499" cy="61.2434" r="3" transform="rotate(13.1233 64.8499 61.2434)" fill="url(#paint47_linear_1116_667)"/>
<circle cx="35.2405" cy="29.6968" r="3" transform="rotate(13.1233 35.2405 29.6968)" fill="url(#paint48_linear_1116_667)"/>
<circle cx="58.6116" cy="35.1458" r="3" transform="rotate(13.1233 58.6116 35.1458)" fill="url(#paint49_linear_1116_667)"/>
<circle cx="81.9866" cy="40.595" r="3" transform="rotate(13.1233 81.9866 40.595)" fill="url(#paint50_linear_1116_667)"/>
<circle cx="23.553" cy="26.9722" r="3" transform="rotate(13.1233 23.553 26.9722)" fill="url(#paint51_linear_1116_667)"/>
<circle cx="46.928" cy="32.4214" r="3" transform="rotate(13.1233 46.928 32.4214)" fill="url(#paint52_linear_1116_667)"/>
<circle cx="70.2991" cy="37.8704" r="3" transform="rotate(13.1233 70.2991 37.8704)" fill="url(#paint53_linear_1116_667)"/>
<circle cx="40.6897" cy="6.32349" r="3" transform="rotate(13.1233 40.6897 6.32349)" fill="url(#paint54_linear_1116_667)"/>
<circle cx="64.0608" cy="11.7725" r="3" transform="rotate(13.1233 64.0608 11.7725)" fill="url(#paint55_linear_1116_667)"/>
<circle cx="87.4358" cy="17.2217" r="3" transform="rotate(13.1233 87.4358 17.2217)" fill="url(#paint56_linear_1116_667)"/>
<circle cx="29.0022" cy="3.59889" r="3" transform="rotate(13.1233 29.0022 3.59889)" fill="url(#paint57_linear_1116_667)"/>
<circle cx="52.3772" cy="9.0481" r="3" transform="rotate(13.1233 52.3772 9.0481)" fill="url(#paint58_linear_1116_667)"/>
<circle cx="75.7483" cy="14.4971" r="3" transform="rotate(13.1233 75.7483 14.4971)" fill="url(#paint59_linear_1116_667)"/>
<defs>
<linearGradient id="paint0_linear_1116_667" x1="14.0584" y1="113.983" x2="19.5065" y2="111.125" gradientUnits="userSpaceOnUse">
<stop stop-color="#7C3AED"/>
<stop offset="1" stop-color="#DE6B48"/>
</linearGradient>
<linearGradient id="paint1_linear_1116_667" x1="37.4295" y1="119.432" x2="42.8776" y2="116.574" gradientUnits="userSpaceOnUse">
<stop stop-color="#7C3AED"/>
<stop offset="1" stop-color="#DE6B48"/>
</linearGradient>
<linearGradient id="paint2_linear_1116_667" x1="60.8045" y1="124.881" x2="66.2526" y2="122.023" gradientUnits="userSpaceOnUse">
<stop stop-color="#7C3AED"/>
<stop offset="1" stop-color="#DE6B48"/>
</linearGradient>
<linearGradient id="paint3_linear_1116_667" x1="2.37092" y1="111.258" x2="7.81904" y2="108.4" gradientUnits="userSpaceOnUse">
<stop stop-color="#7C3AED"/>
<stop offset="1" stop-color="#DE6B48"/>
</linearGradient>
<linearGradient id="paint4_linear_1116_667" x1="25.7459" y1="116.707" x2="31.194" y2="113.849" gradientUnits="userSpaceOnUse">
<stop stop-color="#7C3AED"/>
<stop offset="1" stop-color="#DE6B48"/>
</linearGradient>
<linearGradient id="paint5_linear_1116_667" x1="49.117" y1="122.156" x2="54.5651" y2="119.298" gradientUnits="userSpaceOnUse">
<stop stop-color="#7C3AED"/>
<stop offset="1" stop-color="#DE6B48"/>
</linearGradient>
<linearGradient id="paint6_linear_1116_667" x1="19.5076" y1="90.6092" x2="24.9558" y2="87.7514" gradientUnits="userSpaceOnUse">
<stop stop-color="#7C3AED"/>
<stop offset="1" stop-color="#DE6B48"/>
</linearGradient>
<linearGradient id="paint7_linear_1116_667" x1="42.8787" y1="96.0582" x2="48.3269" y2="93.2004" gradientUnits="userSpaceOnUse">
<stop stop-color="#7C3AED"/>
<stop offset="1" stop-color="#DE6B48"/>
</linearGradient>
<linearGradient id="paint8_linear_1116_667" x1="66.2537" y1="101.507" x2="71.7019" y2="98.6496" gradientUnits="userSpaceOnUse">
<stop stop-color="#7C3AED"/>
<stop offset="1" stop-color="#DE6B48"/>
</linearGradient>
<linearGradient id="paint9_linear_1116_667" x1="7.82013" y1="87.8846" x2="13.2683" y2="85.0268" gradientUnits="userSpaceOnUse">
<stop stop-color="#7C3AED"/>
<stop offset="1" stop-color="#DE6B48"/>
</linearGradient>
<linearGradient id="paint10_linear_1116_667" x1="31.1951" y1="93.3338" x2="36.6433" y2="90.476" gradientUnits="userSpaceOnUse">
<stop stop-color="#7C3AED"/>
<stop offset="1" stop-color="#DE6B48"/>
</linearGradient>
<linearGradient id="paint11_linear_1116_667" x1="54.5662" y1="98.7828" x2="60.0144" y2="95.925" gradientUnits="userSpaceOnUse">
<stop stop-color="#7C3AED"/>
<stop offset="1" stop-color="#DE6B48"/>
</linearGradient>
<linearGradient id="paint12_linear_1116_667" x1="24.9569" y1="67.2362" x2="30.405" y2="64.3784" gradientUnits="userSpaceOnUse">
<stop stop-color="#7C3AED"/>
<stop offset="1" stop-color="#DE6B48"/>
</linearGradient>
<linearGradient id="paint13_linear_1116_667" x1="48.3279" y1="72.6852" x2="53.7761" y2="69.8274" gradientUnits="userSpaceOnUse">
<stop stop-color="#7C3AED"/>
<stop offset="1" stop-color="#DE6B48"/>
</linearGradient>
<linearGradient id="paint14_linear_1116_667" x1="71.7029" y1="78.1344" x2="77.1511" y2="75.2766" gradientUnits="userSpaceOnUse">
<stop stop-color="#7C3AED"/>
<stop offset="1" stop-color="#DE6B48"/>
</linearGradient>
<linearGradient id="paint15_linear_1116_667" x1="13.2694" y1="64.5116" x2="18.7175" y2="61.6538" gradientUnits="userSpaceOnUse">
<stop stop-color="#7C3AED"/>
<stop offset="1" stop-color="#DE6B48"/>
</linearGradient>
<linearGradient id="paint16_linear_1116_667" x1="36.6444" y1="69.9608" x2="42.0925" y2="67.103" gradientUnits="userSpaceOnUse">
<stop stop-color="#7C3AED"/>
<stop offset="1" stop-color="#DE6B48"/>
</linearGradient>
<linearGradient id="paint17_linear_1116_667" x1="60.0154" y1="75.4098" x2="65.4636" y2="72.552" gradientUnits="userSpaceOnUse">
<stop stop-color="#7C3AED"/>
<stop offset="1" stop-color="#DE6B48"/>
</linearGradient>
<linearGradient id="paint18_linear_1116_667" x1="30.4061" y1="43.8629" x2="35.8542" y2="41.0051" gradientUnits="userSpaceOnUse">
<stop stop-color="#7C3AED"/>
<stop offset="1" stop-color="#DE6B48"/>
</linearGradient>
<linearGradient id="paint19_linear_1116_667" x1="53.7772" y1="49.3119" x2="59.2253" y2="46.4541" gradientUnits="userSpaceOnUse">
<stop stop-color="#7C3AED"/>
<stop offset="1" stop-color="#DE6B48"/>
</linearGradient>
<linearGradient id="paint20_linear_1116_667" x1="77.1522" y1="54.7611" x2="82.6003" y2="51.9033" gradientUnits="userSpaceOnUse">
<stop stop-color="#7C3AED"/>
<stop offset="1" stop-color="#DE6B48"/>
</linearGradient>
<linearGradient id="paint21_linear_1116_667" x1="18.7186" y1="41.1383" x2="24.1667" y2="38.2805" gradientUnits="userSpaceOnUse">
<stop stop-color="#7C3AED"/>
<stop offset="1" stop-color="#DE6B48"/>
</linearGradient>
<linearGradient id="paint22_linear_1116_667" x1="42.0936" y1="46.5875" x2="47.5417" y2="43.7297" gradientUnits="userSpaceOnUse">
<stop stop-color="#7C3AED"/>
<stop offset="1" stop-color="#DE6B48"/>
</linearGradient>
<linearGradient id="paint23_linear_1116_667" x1="65.4647" y1="52.0365" x2="70.9128" y2="49.1787" gradientUnits="userSpaceOnUse">
<stop stop-color="#7C3AED"/>
<stop offset="1" stop-color="#DE6B48"/>
</linearGradient>
<linearGradient id="paint24_linear_1116_667" x1="35.8553" y1="20.4896" x2="41.3034" y2="17.6318" gradientUnits="userSpaceOnUse">
<stop stop-color="#7C3AED"/>
<stop offset="1" stop-color="#DE6B48"/>
</linearGradient>
<linearGradient id="paint25_linear_1116_667" x1="59.2264" y1="25.9386" x2="64.6745" y2="23.0808" gradientUnits="userSpaceOnUse">
<stop stop-color="#7C3AED"/>
<stop offset="1" stop-color="#DE6B48"/>
</linearGradient>
<linearGradient id="paint26_linear_1116_667" x1="82.6014" y1="31.3878" x2="88.0495" y2="28.53" gradientUnits="userSpaceOnUse">
<stop stop-color="#7C3AED"/>
<stop offset="1" stop-color="#DE6B48"/>
</linearGradient>
<linearGradient id="paint27_linear_1116_667" x1="24.1678" y1="17.765" x2="29.6159" y2="14.9072" gradientUnits="userSpaceOnUse">
<stop stop-color="#7C3AED"/>
<stop offset="1" stop-color="#DE6B48"/>
</linearGradient>
<linearGradient id="paint28_linear_1116_667" x1="47.5428" y1="23.2142" x2="52.9909" y2="20.3564" gradientUnits="userSpaceOnUse">
<stop stop-color="#7C3AED"/>
<stop offset="1" stop-color="#DE6B48"/>
</linearGradient>
<linearGradient id="paint29_linear_1116_667" x1="70.9139" y1="28.6632" x2="76.362" y2="25.8054" gradientUnits="userSpaceOnUse">
<stop stop-color="#7C3AED"/>
<stop offset="1" stop-color="#DE6B48"/>
</linearGradient>
<linearGradient id="paint30_linear_1116_667" x1="16.7811" y1="102.296" x2="22.2292" y2="99.4382" gradientUnits="userSpaceOnUse">
<stop stop-color="#7C3AED"/>
<stop offset="1" stop-color="#DE6B48"/>
</linearGradient>
<linearGradient id="paint31_linear_1116_667" x1="40.1522" y1="107.745" x2="45.6003" y2="104.887" gradientUnits="userSpaceOnUse">
<stop stop-color="#7C3AED"/>
<stop offset="1" stop-color="#DE6B48"/>
</linearGradient>
<linearGradient id="paint32_linear_1116_667" x1="63.5272" y1="113.194" x2="68.9753" y2="110.336" gradientUnits="userSpaceOnUse">
<stop stop-color="#7C3AED"/>
<stop offset="1" stop-color="#DE6B48"/>
</linearGradient>
<linearGradient id="paint33_linear_1116_667" x1="5.09357" y1="99.5714" x2="10.5417" y2="96.7136" gradientUnits="userSpaceOnUse">
<stop stop-color="#7C3AED"/>
<stop offset="1" stop-color="#DE6B48"/>
</linearGradient>
<linearGradient id="paint34_linear_1116_667" x1="28.4686" y1="105.021" x2="33.9167" y2="102.163" gradientUnits="userSpaceOnUse">
<stop stop-color="#7C3AED"/>
<stop offset="1" stop-color="#DE6B48"/>
</linearGradient>
<linearGradient id="paint35_linear_1116_667" x1="51.8397" y1="110.47" x2="57.2878" y2="107.612" gradientUnits="userSpaceOnUse">
<stop stop-color="#7C3AED"/>
<stop offset="1" stop-color="#DE6B48"/>
</linearGradient>
<linearGradient id="paint36_linear_1116_667" x1="22.2303" y1="78.9227" x2="27.6784" y2="76.0649" gradientUnits="userSpaceOnUse">
<stop stop-color="#7C3AED"/>
<stop offset="1" stop-color="#DE6B48"/>
</linearGradient>
<linearGradient id="paint37_linear_1116_667" x1="45.6014" y1="84.3717" x2="51.0495" y2="81.5139" gradientUnits="userSpaceOnUse">
<stop stop-color="#7C3AED"/>
<stop offset="1" stop-color="#DE6B48"/>
</linearGradient>
<linearGradient id="paint38_linear_1116_667" x1="68.9764" y1="89.8209" x2="74.4245" y2="86.9631" gradientUnits="userSpaceOnUse">
<stop stop-color="#7C3AED"/>
<stop offset="1" stop-color="#DE6B48"/>
</linearGradient>
<linearGradient id="paint39_linear_1116_667" x1="10.5428" y1="76.1981" x2="15.9909" y2="73.3403" gradientUnits="userSpaceOnUse">
<stop stop-color="#7C3AED"/>
<stop offset="1" stop-color="#DE6B48"/>
</linearGradient>
<linearGradient id="paint40_linear_1116_667" x1="33.9178" y1="81.6473" x2="39.3659" y2="78.7895" gradientUnits="userSpaceOnUse">
<stop stop-color="#7C3AED"/>
<stop offset="1" stop-color="#DE6B48"/>
</linearGradient>
<linearGradient id="paint41_linear_1116_667" x1="57.2889" y1="87.0963" x2="62.737" y2="84.2385" gradientUnits="userSpaceOnUse">
<stop stop-color="#7C3AED"/>
<stop offset="1" stop-color="#DE6B48"/>
</linearGradient>
<linearGradient id="paint42_linear_1116_667" x1="27.6795" y1="55.5494" x2="33.1276" y2="52.6916" gradientUnits="userSpaceOnUse">
<stop stop-color="#7C3AED"/>
<stop offset="1" stop-color="#DE6B48"/>
</linearGradient>
<linearGradient id="paint43_linear_1116_667" x1="51.0506" y1="60.9984" x2="56.4987" y2="58.1406" gradientUnits="userSpaceOnUse">
<stop stop-color="#7C3AED"/>
<stop offset="1" stop-color="#DE6B48"/>
</linearGradient>
<linearGradient id="paint44_linear_1116_667" x1="74.4256" y1="66.4476" x2="79.8737" y2="63.5898" gradientUnits="userSpaceOnUse">
<stop stop-color="#7C3AED"/>
<stop offset="1" stop-color="#DE6B48"/>
</linearGradient>
<linearGradient id="paint45_linear_1116_667" x1="15.992" y1="52.8248" x2="21.4401" y2="49.967" gradientUnits="userSpaceOnUse">
<stop stop-color="#7C3AED"/>
<stop offset="1" stop-color="#DE6B48"/>
</linearGradient>
<linearGradient id="paint46_linear_1116_667" x1="39.367" y1="58.274" x2="44.8151" y2="55.4162" gradientUnits="userSpaceOnUse">
<stop stop-color="#7C3AED"/>
<stop offset="1" stop-color="#DE6B48"/>
</linearGradient>
<linearGradient id="paint47_linear_1116_667" x1="62.7381" y1="63.723" x2="68.1862" y2="60.8652" gradientUnits="userSpaceOnUse">
<stop stop-color="#7C3AED"/>
<stop offset="1" stop-color="#DE6B48"/>
</linearGradient>
<linearGradient id="paint48_linear_1116_667" x1="33.1287" y1="32.1764" x2="38.5769" y2="29.3186" gradientUnits="userSpaceOnUse">
<stop stop-color="#7C3AED"/>
<stop offset="1" stop-color="#DE6B48"/>
</linearGradient>
<linearGradient id="paint49_linear_1116_667" x1="56.4998" y1="37.6254" x2="61.948" y2="34.7675" gradientUnits="userSpaceOnUse">
<stop stop-color="#7C3AED"/>
<stop offset="1" stop-color="#DE6B48"/>
</linearGradient>
<linearGradient id="paint50_linear_1116_667" x1="79.8748" y1="43.0746" x2="85.3229" y2="40.2168" gradientUnits="userSpaceOnUse">
<stop stop-color="#7C3AED"/>
<stop offset="1" stop-color="#DE6B48"/>
</linearGradient>
<linearGradient id="paint51_linear_1116_667" x1="21.4412" y1="29.4518" x2="26.8894" y2="26.594" gradientUnits="userSpaceOnUse">
<stop stop-color="#7C3AED"/>
<stop offset="1" stop-color="#DE6B48"/>
</linearGradient>
<linearGradient id="paint52_linear_1116_667" x1="44.8162" y1="34.901" x2="50.2644" y2="32.0432" gradientUnits="userSpaceOnUse">
<stop stop-color="#7C3AED"/>
<stop offset="1" stop-color="#DE6B48"/>
</linearGradient>
<linearGradient id="paint53_linear_1116_667" x1="68.1873" y1="40.35" x2="73.6354" y2="37.4921" gradientUnits="userSpaceOnUse">
<stop stop-color="#7C3AED"/>
<stop offset="1" stop-color="#DE6B48"/>
</linearGradient>
<linearGradient id="paint54_linear_1116_667" x1="38.5779" y1="8.80309" x2="44.0261" y2="5.94527" gradientUnits="userSpaceOnUse">
<stop stop-color="#7C3AED"/>
<stop offset="1" stop-color="#DE6B48"/>
</linearGradient>
<linearGradient id="paint55_linear_1116_667" x1="61.949" y1="14.2521" x2="67.3972" y2="11.3942" gradientUnits="userSpaceOnUse">
<stop stop-color="#7C3AED"/>
<stop offset="1" stop-color="#DE6B48"/>
</linearGradient>
<linearGradient id="paint56_linear_1116_667" x1="85.324" y1="19.7013" x2="90.7722" y2="16.8435" gradientUnits="userSpaceOnUse">
<stop stop-color="#7C3AED"/>
<stop offset="1" stop-color="#DE6B48"/>
</linearGradient>
<linearGradient id="paint57_linear_1116_667" x1="26.8904" y1="6.07848" x2="32.3386" y2="3.22066" gradientUnits="userSpaceOnUse">
<stop stop-color="#7C3AED"/>
<stop offset="1" stop-color="#DE6B48"/>
</linearGradient>
<linearGradient id="paint58_linear_1116_667" x1="50.2654" y1="11.5277" x2="55.7136" y2="8.66988" gradientUnits="userSpaceOnUse">
<stop stop-color="#7C3AED"/>
<stop offset="1" stop-color="#DE6B48"/>
</linearGradient>
<linearGradient id="paint59_linear_1116_667" x1="73.6365" y1="16.9767" x2="79.0847" y2="14.1189" gradientUnits="userSpaceOnUse">
<stop stop-color="#7C3AED"/>
<stop offset="1" stop-color="#DE6B48"/>
</linearGradient>
</defs>
</svg>
