<svg width="212" height="217" viewBox="0 0 212 217" fill="none" xmlns="http://www.w3.org/2000/svg">
<g clip-path="url(#clip0_1116_778)">
<path d="M149.607 61.7143C146.624 64.8837 143.264 67.9329 139.258 70.1161C137.26 71.1838 135.155 72.0116 132.984 72.5829C130.853 73.1323 128.683 73.4853 126.5 73.638C121.919 73.9365 117.427 73.4641 113.081 72.8255C112 72.6763 110.924 72.5101 109.855 72.3357L106.66 71.7963L107.428 67.7482C112.439 68.6448 117.54 69.7188 122.422 71.7347C127.287 73.7229 131.945 76.7021 135.524 80.8903C136.425 81.9421 137.246 83.0649 137.979 84.249C138.731 85.4413 139.374 86.7052 139.899 88.0249C140.044 88.3515 140.152 88.6909 140.27 89.027C140.381 89.3652 140.513 89.6982 140.606 90.0415C140.796 90.7272 140.999 91.412 141.132 92.1091C141.429 93.4879 141.627 94.8899 141.725 96.3038C141.824 97.6932 141.849 99.089 141.798 100.485C141.736 101.864 141.647 103.239 141.491 104.59C141.204 107.302 140.753 109.945 140.308 112.55L135.694 111.362L136.444 109.152C137.252 106.748 138.147 104.348 139.115 101.95C140.084 99.4888 141.228 97.1018 142.538 94.8091C143.914 92.3904 145.647 90.2038 147.672 88.3307C148.744 87.3713 149.918 86.542 151.169 85.8596C152.424 85.1828 153.752 84.6681 155.122 84.3272C157.803 83.6461 160.417 83.5353 162.904 83.5201C165.406 83.5021 167.905 83.6182 170.39 83.8679C172.874 84.1041 175.34 84.4913 177.773 85.0275C178.989 85.2993 180.198 85.5941 181.396 85.9305L182.293 86.1832C182.592 86.2695 182.886 86.3712 183.19 86.4388C183.794 86.5905 184.389 86.7703 184.989 86.9351L183.472 91.0693C179.258 89.3488 174.976 87.5801 170.83 85.3121C170.315 85.019 169.796 84.7353 169.286 84.4332L167.773 83.4816L166.286 82.471L164.832 81.3962C162.891 79.9113 161.098 78.2322 159.478 76.3823C156.432 72.8327 154.229 68.5884 153.036 63.9747C152.547 62.1821 152.319 60.318 152.36 58.443C152.386 57.762 152.464 57.0828 152.594 56.412C152.656 56.1141 152.722 55.8361 152.793 55.578L152.848 55.3878L152.914 55.2411C152.962 55.1385 153.008 55.0395 153.053 54.9441C153.616 53.7647 154.038 53.1447 154.634 54.3787C154.715 54.5555 154.785 54.7377 154.843 54.924C154.878 55.0225 154.909 55.1565 154.943 55.2462C154.975 55.3299 155.009 55.4174 155.044 55.5086C155.184 55.8724 155.298 56.2951 155.443 56.7673C155.595 57.2384 155.714 57.7676 155.887 58.3387C155.964 58.6251 156.045 58.9242 156.129 59.2362C156.221 59.5454 156.312 59.8673 156.402 60.202C156.894 61.9417 157.496 63.6435 158.204 65.2964C158.909 66.9789 159.74 68.5993 160.689 70.1434C162.004 72.2546 163.577 74.1773 165.371 75.865C167.206 77.5779 169.195 79.1078 171.311 80.4351C175.552 83.1887 180.255 85.3148 185.009 87.4174L185.012 87.4186C185.406 87.593 185.716 87.9183 185.881 88.3279C186.045 88.7375 186.05 89.2005 185.895 89.6219C185.74 90.0433 185.437 90.3913 185.047 90.5947C184.657 90.798 184.211 90.8413 183.799 90.7157C182.998 90.4706 182.206 90.1899 181.389 89.9958C180.574 89.7962 179.757 89.6068 178.935 89.4397C177.293 89.0978 175.636 88.8372 173.976 88.6131C170.661 88.1598 167.311 87.9724 163.955 88.0526C161.675 88.0616 159.395 88.2889 157.145 88.7318C156.122 88.9513 155.12 89.2745 154.154 89.6967C153.239 90.1174 152.362 90.627 151.536 91.2184C150.784 91.7808 150.079 92.407 149.426 93.0905C148.759 93.8104 148.139 94.575 147.57 95.3791C146.405 97.0702 145.393 98.8665 144.547 100.745C142.786 104.582 141.4 108.711 139.932 112.841L139.923 112.865C139.739 113.383 139.376 113.814 138.905 114.074C138.434 114.335 137.89 114.404 137.381 114.27C136.872 114.136 136.435 113.807 136.157 113.349C135.879 112.891 135.78 112.337 135.879 111.798C136.488 108.502 137.061 105.252 137.34 102.042C137.6 98.8396 137.618 95.6646 137.018 92.6663C136.766 91.3886 136.398 90.1411 135.919 88.9401C135.421 87.7395 134.815 86.5923 134.109 85.5132C132.63 83.3377 130.825 81.4241 128.76 79.8425C126.666 78.2302 124.383 76.8952 121.962 75.8675C119.502 74.8173 116.967 73.9553 114.378 73.2883C111.865 72.6155 109.289 72.0902 106.69 71.6041L106.673 71.6009C106.207 71.5136 105.798 71.2377 105.536 70.8337C105.274 70.4297 105.179 69.9306 105.274 69.4457C105.368 68.9609 105.643 68.5298 106.039 68.2471C106.435 67.9644 106.92 67.8532 107.386 67.9377C111.566 68.6959 115.721 69.4149 119.868 69.6602C121.923 69.8093 123.989 69.8226 126.052 69.7C128.082 69.5682 130.101 69.2392 132.081 68.7173C132.566 68.5695 133.06 68.4459 133.54 68.2806L134.968 67.7528C135.904 67.3599 136.821 66.9171 137.715 66.4264C139.512 65.394 141.206 64.1755 142.77 62.7903C143.566 62.0954 144.341 61.3644 145.098 60.607C145.476 60.2284 145.851 59.8437 146.221 59.4528L146.775 58.8627L147.048 58.5667L147.294 58.2812C147.629 57.9131 147.939 57.4911 148.259 57.0868C148.559 56.656 148.877 56.2424 149.16 55.7924C149.754 54.9177 150.287 53.9895 150.81 53.0583C151.807 51.2474 152.67 49.3629 153.391 47.4216C154.085 45.5387 154.574 43.6186 154.549 41.8865L156.41 41.9793L156.524 42.0137L156.523 42.0155L156.52 42.0265L156.515 42.0413L156.506 42.0708L156.487 42.1297C156.474 42.1678 156.461 42.2068 156.446 42.2628L156.359 42.5708L156.187 43.199C156.074 43.6208 155.961 44.0402 155.848 44.4571C155.618 45.2931 155.392 46.1188 155.167 46.9344C154.713 48.5664 154.248 50.153 153.792 51.7027C153.646 52.2326 153.46 52.751 153.237 53.2535C153.158 53.4505 153.062 53.5528 153.003 53.7393C152.968 53.8615 152.898 53.9707 152.802 54.0522L153.048 54.466C152.905 54.3735 152.855 54.2919 152.832 54.316C152.812 54.331 152.823 54.4511 152.941 54.5954C152.956 54.6128 152.973 54.6266 152.994 54.6359C153.014 54.6452 153.036 54.6496 153.058 54.649C153.081 54.6484 153.103 54.6427 153.123 54.6323C153.143 54.6219 153.161 54.607 153.175 54.5888C153.189 54.5706 153.199 54.5495 153.204 54.527C153.21 54.5045 153.211 54.4811 153.206 54.4586C153.202 54.4361 153.193 54.4149 153.18 54.3966C153.166 54.3784 153.149 54.3635 153.13 54.353L152.644 54.0947C152.555 54.0469 152.451 53.8665 152.368 53.5659C152.288 53.35 152.231 53.1248 152.2 52.8945C152.106 52.1855 152.094 51.4653 152.165 50.7492C152.304 49.1937 152.483 47.6395 152.684 46.068C152.784 45.2828 152.892 44.4941 153.006 43.7018L153.185 42.5049L153.284 41.892L153.339 41.5741C153.361 41.4549 153.401 41.2791 153.433 41.1347C153.551 40.6173 153.839 40.1545 154.247 39.8265C154.656 39.4984 155.159 39.3258 155.669 39.3385C156.179 39.3513 156.665 39.5485 157.041 39.8962C157.418 40.2438 157.662 40.7198 157.731 41.2419L157.752 41.4085C157.904 42.7449 157.868 44.1018 157.644 45.4368C157.525 46.0506 157.423 46.6825 157.26 47.2694C157.183 47.5667 157.112 47.8693 157.028 48.162L156.76 49.031C156.011 51.3243 155.03 53.5344 153.833 55.6239C153.24 56.6833 152.597 57.7127 151.906 58.7081L151.374 59.4604L150.802 60.2041C150.618 60.452 150.399 60.6973 150.192 60.9427L149.877 61.31L149.583 61.6328C149.592 61.6596 149.6 61.6846 149.607 61.7143Z" fill="url(#paint0_linear_1116_778)"/>
<path d="M108.881 158.161C106.025 159.402 103.009 160.177 99.9432 160.459C99.5604 160.491 99.1788 160.536 98.7958 160.556L97.6438 160.568C97.2602 160.567 96.8768 160.586 96.494 160.565L95.3464 160.478C94.9648 160.441 94.5811 160.434 94.2025 160.372L93.0677 160.183L92.5013 160.088C92.3139 160.057 92.1251 160.025 91.9218 159.975C91.5219 159.883 91.1137 159.771 90.6973 159.627C89.9461 159.378 89.2378 159.014 88.5958 158.545C88.2247 158.263 87.8879 157.936 87.5923 157.571C87.2808 157.17 87.0278 156.723 86.8409 156.244L86.8277 156.21C86.6734 155.814 86.6397 155.376 86.7309 154.953C86.8221 154.53 87.034 154.143 87.3388 153.842C87.6435 153.541 88.0269 153.34 88.4386 153.266C88.8502 153.192 89.2709 153.247 89.6454 153.426C91.3798 154.256 93.0647 155.188 94.6921 156.218C97.4196 157.919 99.9011 160.004 102.068 162.414C104.282 164.881 106.044 167.748 107.271 170.88C108.486 174.073 109.067 177.501 108.979 180.962C108.877 184.514 107.943 188.008 106.256 191.144C106.005 191.603 105.623 191.973 105.165 192.204C104.706 192.434 104.193 192.513 103.697 192.429C103.201 192.346 102.746 192.104 102.394 191.737C102.043 191.371 101.813 190.898 101.737 190.383L101.729 190.332C101.558 189.084 101.579 187.812 101.79 186.561C101.991 185.412 102.3 184.285 102.715 183.195C103.102 182.147 103.544 181.171 103.986 180.239C104.43 179.311 104.856 178.425 105.351 177.475C106.042 176.101 106.874 174.805 107.833 173.611C108.368 172.961 108.963 172.366 109.608 171.833C110.271 171.291 110.987 170.824 111.744 170.439C113.183 169.736 114.717 169.274 116.287 169.072C117.737 168.884 119.198 168.838 120.65 168.935C126.293 169.259 131.722 171.099 136.404 174.275L136.411 174.279C136.818 174.557 137.136 174.954 137.325 175.421C137.513 175.888 137.564 176.406 137.471 176.91C137.378 177.414 137.145 177.882 136.801 178.257C136.457 178.632 136.018 178.898 135.536 179.021C133.98 179.393 132.368 179.35 130.852 178.898C129.521 178.506 128.256 177.918 127.094 177.152C126.529 176.797 126.025 176.41 125.512 176.031C125.014 175.63 124.511 175.235 124.044 174.799C123.092 173.948 122.206 173.023 121.392 172.031C118.09 168.069 115.989 163.174 115.343 157.937C114.955 154.613 115.236 151.226 116.168 147.986C116.525 146.712 117.089 145.505 117.835 144.419C117.99 144.2 118.143 143.997 118.295 143.812C118.456 143.629 118.614 143.462 118.769 143.311C119.044 143.033 119.351 142.789 119.683 142.587C120.55 142.053 121.016 142.354 121.12 143.189C121.215 144.025 120.969 145.404 120.573 147.257L120.39 148.147L120.226 149.054C120.127 149.664 120.011 150.278 119.93 150.9C119.758 152.139 119.657 153.385 119.628 154.632C119.588 157.044 119.95 159.435 120.699 161.7C122.206 166.275 125.13 170.176 129.025 172.808C129.909 173.421 130.876 173.897 131.898 174.22C132.737 174.5 133.641 174.526 134.506 174.295L133.761 178.37C132.366 177.49 130.892 176.75 129.357 176.158C126.526 175.058 123.425 174.529 120.53 174.185C118.471 173.929 116.429 173.977 114.69 174.552C113.856 174.819 113.075 175.244 112.385 175.805C111.671 176.428 111.047 177.156 110.536 177.965C109.951 178.887 109.42 179.843 108.944 180.828C108.426 181.874 107.909 182.914 107.483 183.913C106.613 185.917 106.091 187.852 106.315 189.528L102.267 188.802L102.628 188.121L102.811 187.781L102.968 187.427L103.285 186.72L103.555 185.99C104.15 184.324 104.493 182.58 104.574 180.818C104.652 179.023 104.502 177.231 104.128 175.487C103.756 173.734 103.174 172.041 102.396 170.446C101.605 168.834 100.644 167.32 99.5294 165.931C96.5167 162.133 92.4631 159.174 88.0275 157.074L90.4103 154.68C90.4941 154.894 90.6325 155.08 90.8109 155.218C91.0874 155.436 91.3959 155.609 91.7254 155.728C92.1334 155.882 92.5531 156.002 92.9808 156.088L94.4288 156.319C94.913 156.395 95.4015 156.442 95.8921 156.461L96.6275 156.513C96.8726 156.536 97.1203 156.511 97.3668 156.513C97.8601 156.499 98.3545 156.51 98.8484 156.477L100.33 156.328C102.311 156.059 104.262 155.562 106.146 154.847C108.03 154.101 109.838 153.154 111.539 152.021C113.649 150.579 115.601 148.9 117.361 147.016C117.47 146.904 117.583 146.796 117.689 146.682L117.991 146.327L118.601 145.626C119.029 145.174 119.378 144.673 119.76 144.194L120.331 143.476C120.508 143.238 120.674 142.999 120.824 142.753C121.147 142.276 121.328 141.713 121.342 141.137C121.335 140.993 121.314 140.857 121.303 140.752C121.303 140.75 121.303 140.747 121.302 140.745C121.301 140.744 121.299 140.742 121.297 140.741L121.272 140.721C121.179 140.653 121.064 140.625 120.949 140.642C120.844 140.657 120.743 140.694 120.652 140.75C120.487 140.853 120.356 141.004 120.275 141.185C120.236 141.27 120.214 141.362 120.211 141.455C120.201 141.536 120.197 141.617 120.198 141.699C120.204 141.837 120.204 141.936 120.156 141.977C120.111 142.018 120.013 142.003 119.876 141.879C119.796 141.795 119.731 141.696 119.685 141.587C119.599 141.447 119.552 141.285 119.548 141.118C119.523 140.711 119.637 140.305 119.872 139.971C120.046 139.724 120.277 139.527 120.544 139.398C120.737 139.306 120.944 139.25 121.154 139.234C121.402 139.218 121.65 139.253 121.883 139.338C122.06 139.402 122.214 139.517 122.327 139.671L122.611 140.056C122.76 140.259 122.885 140.48 122.982 140.715C123.036 140.846 123.081 140.981 123.116 141.119C123.143 141.263 123.161 141.409 123.169 141.557C123.199 142.249 123.1 142.945 122.876 143.606C122.71 144.124 122.503 144.629 122.256 145.114L121.596 146.453L121.426 146.789L121.232 147.109L120.84 147.751C119.779 149.48 118.527 151.078 117.11 152.511C114.701 154.857 111.912 156.743 108.88 158.079C108.88 158.106 108.881 158.13 108.881 158.161Z" fill="url(#paint1_linear_1116_778)"/>
<path d="M74.5968 99.1267L73.3327 100.357L71.995 101.503L71.6592 101.787L71.3069 102.051L70.6017 102.576C70.3656 102.749 70.1336 102.928 69.8937 103.095L69.1556 103.57C68.1739 104.207 67.1597 104.787 66.1179 105.309L64.5301 106.029C63.9986 106.262 63.4489 106.441 62.9093 106.647C60.7376 107.405 58.4994 107.922 56.233 108.19C53.9782 108.429 51.7113 108.434 49.4666 108.204C48.8751 108.127 48.2801 108.072 47.6927 107.969L45.9359 107.629L44.2046 107.177C43.6273 107.028 43.0694 106.808 42.5017 106.627C40.2486 105.829 38.0931 104.776 36.0742 103.484L34.6684 102.529C34.2645 102.255 33.9736 101.836 33.8492 101.35C33.7248 100.864 33.7754 100.344 33.9915 99.8845C34.2076 99.4255 34.5748 99.0587 35.0254 98.8517C35.476 98.6447 35.9798 98.6114 36.4439 98.7579L36.5335 98.787C41.5426 100.376 46.7128 101.998 51.5849 104.644C54.0555 105.968 56.3635 107.587 58.4634 109.467C60.6237 111.393 62.4589 113.677 63.8972 116.23C65.3005 118.825 66.2646 121.658 66.7487 124.609C67.2035 127.468 67.3662 130.376 67.2341 133.285C67.1781 134.718 67.0685 136.137 66.9217 137.551C66.7707 138.966 66.5774 140.404 66.2797 141.858C65.9878 143.348 65.5703 144.811 65.032 146.232C64.4666 147.722 63.7207 149.135 62.8127 150.437C62.5133 150.866 62.0955 151.192 61.6164 151.371C61.1373 151.55 60.6201 151.572 60.1356 151.436C59.651 151.299 59.2226 151.01 58.9089 150.607C58.5952 150.205 58.4115 149.709 58.3829 149.188L58.3799 149.129C58.2877 146.598 58.6242 144.058 59.3741 141.625C60.1735 139.045 61.183 136.535 62.3914 134.122C63.5231 131.709 64.8014 129.37 66.2186 127.119C66.9563 125.957 67.7608 124.841 68.6275 123.778C69.5105 122.68 70.4777 121.656 71.5191 120.718C72.5842 119.755 73.7345 118.899 74.9538 118.161C76.1765 117.431 77.4636 116.826 78.7959 116.357C81.363 115.476 84.0221 114.942 86.7059 114.769C91.8749 114.395 97.0508 114.792 102.075 115.946C102.701 116.093 103.325 116.246 103.944 116.418C104.255 116.5 104.564 116.587 104.872 116.68C105.182 116.773 105.472 116.851 105.845 116.977C106.671 117.238 107.451 117.624 108.162 118.125C108.629 118.461 109.04 118.874 109.381 119.346C109.782 119.909 110.056 120.559 110.184 121.251L110.189 121.28C110.249 121.618 110.244 121.966 110.174 122.305C110.103 122.644 109.97 122.966 109.78 123.255C109.591 123.543 109.35 123.791 109.07 123.985C108.79 124.179 108.477 124.315 108.15 124.385C107.795 124.46 107.431 124.457 107.081 124.377C97.0859 122.032 88.1931 116.329 81.7737 108.147C80.283 106.243 79.031 104.149 78.0463 101.913C77.5534 100.772 77.1512 99.5892 76.8435 98.3763C76.5342 97.1583 76.3355 95.9103 76.2501 94.6485C76.0886 92.6392 76.3684 90.607 77.0688 88.7035C77.5044 87.479 78.2155 86.3737 79.1424 85.481C80.2169 84.5452 80.633 84.9294 80.5413 86.0114C80.521 86.5698 80.3822 87.315 80.2621 88.2684C80.1123 89.4191 80.0348 90.5767 80.0299 91.7341C80.0425 93.5171 80.3061 95.2823 80.8125 96.9742C81.349 98.7376 82.0829 100.426 82.9996 102.004C84.3466 104.291 85.9554 106.397 87.7921 108.278C89.6239 110.205 91.6382 111.937 93.8062 113.448C98.1396 116.482 103.012 118.619 108.164 119.743L105.681 122.244C105.679 122.245 105.672 122.247 105.68 122.245L105.699 122.238C105.695 122.239 105.692 122.241 105.688 122.242C105.679 122.246 105.671 122.25 105.676 122.248L105.67 122.246C105.652 122.222 105.632 122.2 105.609 122.18C105.458 122.046 105.287 121.937 105.104 121.856C104.818 121.722 104.522 121.611 104.219 121.525L103.067 121.209C101.493 120.802 99.8969 120.485 98.2919 120.235C95.0825 119.749 91.8257 119.604 88.5718 119.801C86.2678 119.92 83.9772 120.301 81.7415 120.937C80.6877 121.245 79.657 121.638 78.6589 122.112C78.1785 122.341 77.7088 122.593 77.2518 122.87C77.0267 123.011 76.7939 123.136 76.5734 123.284L75.9134 123.729C74.0415 125.097 72.3952 126.772 71.0424 128.687C69.6 130.709 68.3209 132.848 67.2188 135.083C66.0554 137.303 65.0409 139.601 64.1824 141.96C63.3771 144.148 62.9836 146.466 63.0235 148.787L59.103 147.631C60.4374 145.767 61.2904 143.455 61.82 140.971C62.0919 139.731 62.2877 138.447 62.4506 137.138C62.6104 135.826 62.7387 134.513 62.821 133.209C63.0284 130.425 62.8957 127.633 62.4259 124.901C61.9736 122.246 61.0284 119.719 59.6422 117.458C58.2 115.197 56.4052 113.203 54.3286 111.555C52.2043 109.862 49.9008 108.42 47.4597 107.256C43.6268 105.385 39.492 104.007 35.2989 102.62L36.9785 99.2502C42.9068 103.723 50.8615 105.332 58.2375 103.776C58.696 103.666 59.1627 103.588 59.6158 103.455L60.9754 103.053C61.4269 102.913 61.8637 102.727 62.3094 102.567C62.5299 102.481 62.7562 102.409 62.9724 102.312L63.6187 102.014C64.4833 101.622 65.3292 101.185 66.1534 100.705C66.9543 100.182 67.776 99.6888 68.5297 99.0856C68.9212 98.806 69.2992 98.5062 69.6623 98.1876C70.0253 97.8685 70.4007 97.5637 70.7553 97.234L71.7931 96.2128C72.1442 95.8773 72.4486 95.4935 72.7794 95.1368C74.0758 93.6757 75.2252 92.0827 76.2091 90.3836C78.5662 86.3387 80.0803 81.8433 80.6517 77.1937L82.3368 77.676C80.7388 80.0632 79.5977 82.7385 78.9771 85.5525C78.626 87.1501 78.4168 87.9513 78.0985 87.8434C77.9603 87.7884 77.78 87.5056 77.6406 86.975C77.5562 86.6531 77.4946 86.3248 77.4564 85.9925C77.4308 85.7973 77.4091 85.5864 77.3984 85.3601C77.3932 85.2471 77.3831 85.1293 77.384 85.0088C77.3882 84.8883 77.3939 84.7642 77.4014 84.6365C77.5782 81.6734 78.3659 78.7685 79.7115 76.1178C79.9356 75.6795 80.2933 75.328 80.7273 75.1191C81.1614 74.9103 81.647 74.8561 82.1067 74.9653C82.5665 75.0745 82.974 75.3407 83.2643 75.7216C83.5546 76.1025 83.7111 76.5762 83.7088 77.0671L83.7072 77.2617C83.6777 80.3085 83.1917 83.3435 82.2665 86.2586C81.516 88.6553 80.4694 90.9481 79.1531 93.0792C77.8374 95.2279 76.3028 97.2276 74.5767 99.0427C74.5845 99.0701 74.5913 99.096 74.5968 99.1267Z" fill="url(#paint2_linear_1116_778)"/>
</g>
<defs>
<linearGradient id="paint0_linear_1116_778" x1="121.945" y1="40.5499" x2="133.692" y2="119.883" gradientUnits="userSpaceOnUse">
<stop stop-color="#7C3AED"/>
<stop offset="1" stop-color="#DE6B48"/>
</linearGradient>
<linearGradient id="paint1_linear_1116_778" x1="96.4519" y1="140.009" x2="106.993" y2="196.334" gradientUnits="userSpaceOnUse">
<stop stop-color="#7C3AED"/>
<stop offset="1" stop-color="#DE6B48"/>
</linearGradient>
<linearGradient id="paint2_linear_1116_778" x1="48.5302" y1="76.6922" x2="62.9197" y2="156.948" gradientUnits="userSpaceOnUse">
<stop stop-color="#7C3AED"/>
<stop offset="1" stop-color="#DE6B48"/>
</linearGradient>
<clipPath id="clip0_1116_778">
<rect width="174.243" height="167.024" fill="white" transform="translate(211.785 50.3572) rotate(107.548)"/>
</clipPath>
</defs>
</svg>
