<svg width="17" height="18" viewBox="0 0 17 18" fill="none" xmlns="http://www.w3.org/2000/svg">
<g clip-path="url(#clip0_1116_846)">
<path d="M8.37725 4.95732C6.14131 4.95732 4.33779 6.76084 4.33779 8.99678C4.33779 11.2327 6.14131 13.0362 8.37725 13.0362C10.6132 13.0362 12.4167 11.2327 12.4167 8.99678C12.4167 6.76084 10.6132 4.95732 8.37725 4.95732ZM8.37725 11.6229C6.93232 11.6229 5.75107 10.4452 5.75107 8.99678C5.75107 7.54834 6.92881 6.37061 8.37725 6.37061C9.82568 6.37061 11.0034 7.54834 11.0034 8.99678C11.0034 10.4452 9.82217 11.6229 8.37725 11.6229ZM13.5241 4.79209C13.5241 5.31592 13.1022 5.73428 12.5819 5.73428C12.0581 5.73428 11.6397 5.3124 11.6397 4.79209C11.6397 4.27178 12.0616 3.8499 12.5819 3.8499C13.1022 3.8499 13.5241 4.27178 13.5241 4.79209ZM16.1995 5.74834C16.1397 4.48623 15.8515 3.36826 14.9269 2.44717C14.0058 1.52607 12.8878 1.23779 11.6257 1.17451C10.3249 1.10068 6.42607 1.10068 5.12529 1.17451C3.8667 1.23428 2.74873 1.52256 1.82412 2.44365C0.899512 3.36475 0.614746 4.48271 0.551465 5.74482C0.477637 7.04561 0.477637 10.9444 0.551465 12.2452C0.61123 13.5073 0.899512 14.6253 1.82412 15.5464C2.74873 16.4675 3.86318 16.7558 5.12529 16.819C6.42607 16.8929 10.3249 16.8929 11.6257 16.819C12.8878 16.7593 14.0058 16.471 14.9269 15.5464C15.8479 14.6253 16.1362 13.5073 16.1995 12.2452C16.2733 10.9444 16.2733 7.04912 16.1995 5.74834ZM14.519 13.6409C14.2448 14.33 13.714 14.8608 13.0214 15.1386C11.9843 15.5499 9.52334 15.455 8.37725 15.455C7.23115 15.455 4.7667 15.5464 3.73311 15.1386C3.04404 14.8644 2.51318 14.3335 2.23545 13.6409C1.82412 12.6038 1.91904 10.1429 1.91904 8.99678C1.91904 7.85068 1.82764 5.38623 2.23545 4.35264C2.50967 3.66357 3.04053 3.13271 3.73311 2.85498C4.77021 2.44365 7.23115 2.53857 8.37725 2.53857C9.52334 2.53857 11.9878 2.44717 13.0214 2.85498C13.7105 3.1292 14.2413 3.66006 14.519 4.35264C14.9304 5.38975 14.8354 7.85068 14.8354 8.99678C14.8354 10.1429 14.9304 12.6073 14.519 13.6409Z" fill="#783FD9"/>
</g>
<defs>
<clipPath id="clip0_1116_846">
<rect width="15.75" height="18" fill="white" transform="translate(0.5)"/>
</clipPath>
</defs>
</svg>
