<svg width="233" height="35" viewBox="0 0 233 35" fill="none" xmlns="http://www.w3.org/2000/svg">
<g clip-path="url(#clip0_919_4418)">
<g clip-path="url(#clip1_919_4418)">
<g clip-path="url(#clip2_919_4418)">
<g clip-path="url(#clip3_919_4418)">
<g clip-path="url(#clip4_919_4418)">
<g clip-path="url(#clip5_919_4418)">
<g clip-path="url(#clip6_919_4418)">
<g clip-path="url(#clip7_919_4418)">
<g clip-path="url(#clip8_919_4418)">
<path d="M8.63684 27.1633H14.0337C16.9467 27.1633 19.3131 24.7974 19.3131 21.8932V15.1326H3.35742V21.8932C3.35742 24.8011 5.72747 27.1633 8.63684 27.1633Z" fill="#CC7178"/>
<path d="M0.561803 29.6427H22.1087C22.4133 29.6427 22.6627 29.3936 22.6627 29.0897V28.2657C22.6627 27.9617 22.4133 27.7126 22.1087 27.7126H0.561803C0.257291 27.7126 0.0078125 27.9617 0.0078125 28.2657V29.0897C0.0078125 29.3936 0.257291 29.6427 0.561803 29.6427Z" fill="#CC7178"/>
<path d="M19.5951 30.1921H3.07812L3.64679 31.4666C3.96965 32.1881 4.68873 32.6569 5.4812 32.6569H17.192C17.9845 32.6569 18.7036 32.1918 19.0265 31.4666L19.5951 30.1921Z" fill="#CC7178"/>
<path d="M19.8672 16.9344H22.1308C22.2556 16.9344 22.3656 17.0186 22.3987 17.1395C22.417 17.2091 22.8206 18.8132 21.9694 19.9119C21.5182 20.4942 20.8101 20.8091 19.8709 20.8604V22.2521C21.1733 22.1971 22.1749 21.7503 22.8499 20.9227C24.2367 19.2197 23.9029 16.3558 23.7745 15.5464H19.8709V16.9344H19.8672Z" fill="#CC7178"/>
<path d="M21.9034 17.4839H19.8672V20.3149C20.6266 20.2672 21.188 20.0219 21.5292 19.5787C22.0575 18.8975 21.9731 17.9087 21.9034 17.4839Z" fill="#CC7178"/>
<path d="M11.1862 11.9208C11.1862 11.9208 11.2082 11.9391 11.2192 11.9538C12.0851 11.2543 15.1045 8.4929 12.463 5.77913C10.3717 3.63301 11.0578 0.889941 11.3366 0.0476101C11.3073 0.0366231 11.2816 0.0219739 11.2559 0C10.5185 0.904591 7.84393 4.50464 9.90947 6.79725C12.5033 9.67582 11.6301 11.3678 11.1862 11.9208Z" fill="#CC7178"/>
</g>
</g>
</g>
</g>
</g>
</g>
</g>
</g>
</g>
<path d="M41.888 21.856H40.8C40.8 23.3493 40.8 24.7787 40.8 26.144C40.8213 27.488 40.8427 28.8213 40.864 30.144H41.888C43.3813 30.144 44.5333 29.8027 45.344 29.12C46.176 28.4373 46.592 27.4133 46.592 26.048C46.592 24.5973 46.1973 23.5413 45.408 22.88C44.64 22.1973 43.4667 21.856 41.888 21.856ZM41.984 12.832H40.864C40.8427 14.0267 40.8213 15.2427 40.8 16.48C40.8 17.696 40.8 18.9227 40.8 20.16H41.696C43.0613 20.16 44.064 19.84 44.704 19.2C45.344 18.5387 45.664 17.5787 45.664 16.32C45.664 13.9947 44.4373 12.832 41.984 12.832ZM33.056 12.704V10.976H43.392C45.2053 10.976 46.656 11.2 47.744 11.648C48.832 12.0747 49.6213 12.6613 50.112 13.408C50.6027 14.1547 50.848 14.9973 50.848 15.936C50.848 16.6613 50.688 17.344 50.368 17.984C50.048 18.6027 49.4933 19.1573 48.704 19.648C47.9147 20.1173 46.816 20.48 45.408 20.736C47.7973 21.0133 49.504 21.6213 50.528 22.56C51.5733 23.4773 52.096 24.6613 52.096 26.112C52.096 26.7733 51.9467 27.456 51.648 28.16C51.3493 28.8427 50.8373 29.472 50.112 30.048C49.3867 30.624 48.3733 31.0933 47.072 31.456C45.792 31.8187 44.16 32 42.176 32H33.056V30.272L35.456 30.016C35.4987 28.6933 35.52 27.36 35.52 26.016C35.52 24.672 35.52 23.3173 35.52 21.952V21.024C35.52 19.7013 35.52 18.368 35.52 17.024C35.52 15.6587 35.4987 14.304 35.456 12.96L33.056 12.704ZM53.7078 32V30.496L55.4678 30.144C55.4891 29.3547 55.4998 28.512 55.4998 27.616C55.4998 26.72 55.4998 25.9413 55.4998 25.28V23.392C55.4998 22.7947 55.4891 22.304 55.4678 21.92C55.4678 21.536 55.4571 21.184 55.4358 20.864C55.4358 20.5227 55.4251 20.1387 55.4038 19.712L53.4518 19.424V18.176L59.7558 16.032L60.3318 16.384L60.6198 20.16C61.0678 18.7947 61.6971 17.7707 62.5078 17.088C63.3184 16.384 64.1184 16.032 64.9078 16.032C65.6118 16.032 66.2198 16.2347 66.7318 16.64C67.2438 17.024 67.5638 17.6107 67.6918 18.4C67.6704 19.232 67.4464 19.8827 67.0198 20.352C66.5931 20.8 66.0598 21.024 65.4198 21.024C64.5238 21.024 63.7024 20.5227 62.9558 19.52L62.7638 19.264C62.2944 19.712 61.8571 20.2773 61.4518 20.96C61.0678 21.6427 60.7904 22.3573 60.6198 23.104V25.28C60.6198 25.9413 60.6198 26.6987 60.6198 27.552C60.6198 28.4053 60.6304 29.2053 60.6518 29.952L63.1798 30.496V32H53.7078ZM76.0195 17.696C75.4222 17.696 74.8675 18.0693 74.3555 18.816C73.8648 19.5413 73.5875 20.8853 73.5235 22.848H76.2435C77.0115 22.848 77.5235 22.6987 77.7795 22.4C78.0568 22.08 78.1955 21.5573 78.1955 20.832C78.1955 19.7653 77.9822 18.976 77.5555 18.464C77.1288 17.952 76.6168 17.696 76.0195 17.696ZM76.0835 32.48C74.5262 32.48 73.1502 32.16 71.9555 31.52C70.7608 30.8587 69.8222 29.92 69.1395 28.704C68.4568 27.4667 68.1155 25.9947 68.1155 24.288C68.1155 22.496 68.5102 20.992 69.2995 19.776C70.1102 18.5387 71.1448 17.6107 72.4035 16.992C73.6622 16.352 74.9742 16.032 76.3395 16.032C77.7475 16.032 78.9422 16.3307 79.9235 16.928C80.9262 17.5253 81.6835 18.336 82.1955 19.36C82.7075 20.3627 82.9635 21.5147 82.9635 22.816C82.9635 23.4347 82.8995 24 82.7715 24.512H73.5235C73.6302 26.1973 74.0888 27.4453 74.8995 28.256C75.7315 29.0453 76.7022 29.44 77.8115 29.44C78.6862 29.44 79.4328 29.28 80.0515 28.96C80.6702 28.6187 81.2142 28.2027 81.6835 27.712L82.8035 28.736C82.1422 29.9947 81.2462 30.9333 80.1155 31.552C78.9848 32.1707 77.6408 32.48 76.0835 32.48ZM103.013 17.952V16.544H108.837V17.952L107.045 18.24L102.149 32.064H99.7493L96.0693 21.76L92.4213 32.064H90.0213L84.9653 18.176L83.5572 17.952V16.544H91.9733V17.952L90.1173 18.208L92.6133 26.432L95.4293 18.24L93.5413 17.952V16.544H101.381V17.952L99.6213 18.24L102.245 26.208L104.837 18.24L103.013 17.952ZM116.988 17.696C116.391 17.696 115.836 18.0693 115.324 18.816C114.834 19.5413 114.556 20.8853 114.492 22.848H117.212C117.98 22.848 118.492 22.6987 118.748 22.4C119.026 22.08 119.164 21.5573 119.164 20.832C119.164 19.7653 118.951 18.976 118.524 18.464C118.098 17.952 117.586 17.696 116.988 17.696ZM117.052 32.48C115.495 32.48 114.119 32.16 112.924 31.52C111.73 30.8587 110.791 29.92 110.108 28.704C109.426 27.4667 109.084 25.9947 109.084 24.288C109.084 22.496 109.479 20.992 110.268 19.776C111.079 18.5387 112.114 17.6107 113.372 16.992C114.631 16.352 115.943 16.032 117.308 16.032C118.716 16.032 119.911 16.3307 120.892 16.928C121.895 17.5253 122.652 18.336 123.164 19.36C123.676 20.3627 123.932 21.5147 123.932 22.816C123.932 23.4347 123.868 24 123.74 24.512H114.492C114.599 26.1973 115.058 27.4453 115.868 28.256C116.7 29.0453 117.671 29.44 118.78 29.44C119.655 29.44 120.402 29.28 121.02 28.96C121.639 28.6187 122.183 28.2027 122.652 27.712L123.772 28.736C123.111 29.9947 122.215 30.9333 121.084 31.552C119.954 32.1707 118.61 32.48 117.052 32.48ZM131.18 24.352C131.18 26.1013 131.489 27.4347 132.108 28.352C132.726 29.248 133.526 29.696 134.508 29.696C135.233 29.696 135.894 29.4507 136.492 28.96V19.424C135.916 18.976 135.286 18.752 134.604 18.752C133.622 18.752 132.801 19.2107 132.14 20.128C131.5 21.0453 131.18 22.4533 131.18 24.352ZM136.908 32.352L136.652 30.528C135.414 31.8293 133.91 32.48 132.14 32.48C130.945 32.48 129.857 32.1707 128.876 31.552C127.916 30.9333 127.158 30.0267 126.604 28.832C126.049 27.616 125.772 26.144 125.772 24.416C125.772 22.6667 126.102 21.1733 126.764 19.936C127.446 18.6773 128.321 17.7173 129.388 17.056C130.476 16.3733 131.617 16.032 132.812 16.032C133.644 16.032 134.369 16.1813 134.988 16.48C135.606 16.7573 136.172 17.1733 136.684 17.728V11.872L134.444 11.552V10.208L141.196 8.768L141.708 9.088L141.58 13.568V30.176L143.148 30.496V32L136.908 32.352ZM153.988 12.832H152.708C152.686 14.1547 152.665 15.4773 152.644 16.8C152.644 18.1013 152.644 19.3493 152.644 20.544H153.86C154.926 20.544 155.758 20.3627 156.356 20C156.953 19.6373 157.38 19.1573 157.636 18.56C157.892 17.9627 158.02 17.3227 158.02 16.64C158.02 14.1013 156.676 12.832 153.988 12.832ZM144.9 12.704V10.976H155.3C157.817 10.976 159.748 11.4453 161.092 12.384C162.457 13.3227 163.14 14.624 163.14 16.288C163.14 16.992 162.958 17.696 162.596 18.4C162.233 19.0827 161.636 19.6907 160.804 20.224C159.972 20.736 158.841 21.1093 157.412 21.344C158.628 21.4933 159.577 21.792 160.26 22.24C160.942 22.6667 161.454 23.232 161.796 23.936C162.137 24.6187 162.382 25.4613 162.532 26.464L163.14 30.016L165.572 30.272V32C165.06 32.1067 164.633 32.192 164.292 32.256C163.95 32.3413 163.609 32.3947 163.268 32.416C162.948 32.4373 162.542 32.448 162.052 32.448C160.686 32.448 159.609 32.2133 158.82 31.744C158.052 31.2747 157.582 30.4213 157.412 29.184L156.836 25.472C156.686 24.4053 156.377 23.616 155.908 23.104C155.46 22.592 154.756 22.336 153.796 22.336H152.644C152.644 23.7013 152.644 25.0133 152.644 26.272C152.665 27.5307 152.686 28.7787 152.708 30.016L155.204 30.272V32H144.9V30.272L147.3 30.016C147.342 28.7147 147.364 27.4027 147.364 26.08C147.364 24.7573 147.364 23.424 147.364 22.08V20.896C147.364 19.5733 147.364 18.2507 147.364 16.928C147.364 15.584 147.342 14.2613 147.3 12.96L144.9 12.704ZM173.988 17.696C173.391 17.696 172.836 18.0693 172.324 18.816C171.834 19.5413 171.556 20.8853 171.492 22.848H174.212C174.98 22.848 175.492 22.6987 175.748 22.4C176.026 22.08 176.164 21.5573 176.164 20.832C176.164 19.7653 175.951 18.976 175.524 18.464C175.098 17.952 174.586 17.696 173.988 17.696ZM174.052 32.48C172.495 32.48 171.119 32.16 169.924 31.52C168.73 30.8587 167.791 29.92 167.108 28.704C166.426 27.4667 166.084 25.9947 166.084 24.288C166.084 22.496 166.479 20.992 167.268 19.776C168.079 18.5387 169.114 17.6107 170.372 16.992C171.631 16.352 172.943 16.032 174.308 16.032C175.716 16.032 176.911 16.3307 177.892 16.928C178.895 17.5253 179.652 18.336 180.164 19.36C180.676 20.3627 180.932 21.5147 180.932 22.816C180.932 23.4347 180.868 24 180.74 24.512H171.492C171.599 26.1973 172.058 27.4453 172.868 28.256C173.7 29.0453 174.671 29.44 175.78 29.44C176.655 29.44 177.402 29.28 178.02 28.96C178.639 28.6187 179.183 28.2027 179.652 27.712L180.772 28.736C180.111 29.9947 179.215 30.9333 178.084 31.552C176.954 32.1707 175.61 32.48 174.052 32.48ZM195.03 32.448C193.174 32.448 192.001 31.68 191.51 30.144C190.827 30.8693 190.166 31.4453 189.526 31.872C188.907 32.2773 188.043 32.48 186.934 32.48C185.697 32.48 184.683 32.128 183.894 31.424C183.126 30.72 182.742 29.7067 182.742 28.384C182.742 27.616 182.913 26.9227 183.254 26.304C183.595 25.6853 184.214 25.1093 185.11 24.576C186.006 24.0427 187.275 23.5413 188.918 23.072C189.238 22.9653 189.611 22.8587 190.038 22.752C190.465 22.6453 190.902 22.5387 191.35 22.432V21.376C191.35 19.9467 191.169 18.976 190.806 18.464C190.465 17.952 189.782 17.696 188.758 17.696C188.609 17.696 188.47 17.696 188.342 17.696C188.214 17.696 188.065 17.7067 187.894 17.728L187.734 19.136C187.713 20.1813 187.467 20.9387 186.998 21.408C186.55 21.8773 186.017 22.112 185.398 22.112C184.225 22.112 183.51 21.5787 183.254 20.512C183.339 19.1893 184.011 18.112 185.27 17.28C186.529 16.448 188.31 16.032 190.614 16.032C192.662 16.032 194.123 16.5013 194.998 17.44C195.894 18.3787 196.342 19.9253 196.342 22.08V29.248C196.342 29.8667 196.577 30.176 197.046 30.176C197.217 30.176 197.377 30.1333 197.526 30.048C197.675 29.9413 197.835 29.7493 198.006 29.472L198.87 30.048C198.486 30.9013 197.985 31.52 197.366 31.904C196.769 32.2667 195.99 32.448 195.03 32.448ZM187.478 27.552C187.478 28.3413 187.659 28.928 188.022 29.312C188.406 29.696 188.865 29.888 189.398 29.888C189.633 29.888 189.878 29.8347 190.134 29.728C190.39 29.6213 190.795 29.376 191.35 28.992V23.808C191.073 23.8933 190.795 23.9893 190.518 24.096C190.262 24.1813 190.038 24.2667 189.846 24.352C189.121 24.6507 188.545 25.0773 188.118 25.632C187.691 26.1653 187.478 26.8053 187.478 27.552ZM205.086 24.352C205.086 26.1013 205.395 27.4347 206.014 28.352C206.633 29.248 207.433 29.696 208.414 29.696C209.139 29.696 209.801 29.4507 210.398 28.96V19.424C209.822 18.976 209.193 18.752 208.51 18.752C207.529 18.752 206.707 19.2107 206.046 20.128C205.406 21.0453 205.086 22.4533 205.086 24.352ZM210.814 32.352L210.558 30.528C209.321 31.8293 207.817 32.48 206.046 32.48C204.851 32.48 203.763 32.1707 202.782 31.552C201.822 30.9333 201.065 30.0267 200.51 28.832C199.955 27.616 199.678 26.144 199.678 24.416C199.678 22.6667 200.009 21.1733 200.67 19.936C201.353 18.6773 202.227 17.7173 203.294 17.056C204.382 16.3733 205.523 16.032 206.718 16.032C207.55 16.032 208.275 16.1813 208.894 16.48C209.513 16.7573 210.078 17.1733 210.59 17.728V11.872L208.35 11.552V10.208L215.102 8.768L215.614 9.088L215.486 13.568V30.176L217.054 30.496V32L210.814 32.352ZM224.278 32.48C222.251 32.48 220.395 31.9893 218.71 31.008L218.806 27.104H221.366L221.91 30.272C222.294 30.4213 222.678 30.5387 223.062 30.624C223.446 30.688 223.862 30.72 224.31 30.72C225.227 30.72 225.931 30.5707 226.422 30.272C226.913 29.952 227.158 29.472 227.158 28.832C227.158 28.3413 226.977 27.9147 226.614 27.552C226.251 27.1893 225.537 26.8587 224.47 26.56L222.742 26.048C221.505 25.6853 220.545 25.0987 219.862 24.288C219.201 23.4773 218.87 22.4747 218.87 21.28C218.87 19.808 219.446 18.5707 220.598 17.568C221.75 16.544 223.403 16.032 225.558 16.032C226.497 16.032 227.361 16.1493 228.15 16.384C228.961 16.5973 229.782 16.9173 230.614 17.344L230.39 20.832H227.83L227.19 18.08C226.742 17.9093 226.155 17.824 225.43 17.824C224.705 17.824 224.118 17.9733 223.67 18.272C223.243 18.5707 223.03 19.0187 223.03 19.616C223.03 20.0427 223.201 20.4267 223.542 20.768C223.883 21.088 224.609 21.4187 225.718 21.76L227.286 22.208C228.801 22.656 229.889 23.296 230.55 24.128C231.211 24.96 231.542 25.9733 231.542 27.168C231.542 28.8533 230.891 30.1653 229.59 31.104C228.31 32.0213 226.539 32.48 224.278 32.48Z" fill="url(#paint0_linear_919_4418)"/>
<defs>
<linearGradient id="paint0_linear_919_4418" x1="61.7553" y1="32.9184" x2="73.2202" y2="-17.4483" gradientUnits="userSpaceOnUse">
<stop stop-color="#7C3AED"/>
<stop offset="1" stop-color="#DE6B48"/>
</linearGradient>
<clipPath id="clip0_919_4418">
<rect width="24" height="32.4923" fill="white"/>
</clipPath>
<clipPath id="clip1_919_4418">
<rect width="24" height="32.4923" fill="white" transform="translate(-0.0439453 0.0822754)"/>
</clipPath>
<clipPath id="clip2_919_4418">
<rect width="23.8963" height="32.6568" fill="white" transform="translate(0.0078125)"/>
</clipPath>
<clipPath id="clip3_919_4418">
<rect width="23.8963" height="32.6568" fill="white" transform="translate(0.0078125)"/>
</clipPath>
<clipPath id="clip4_919_4418">
<rect width="23.8963" height="32.6568" fill="white" transform="translate(0.0078125)"/>
</clipPath>
<clipPath id="clip5_919_4418">
<rect width="23.8963" height="32.6568" fill="white" transform="translate(0.0078125)"/>
</clipPath>
<clipPath id="clip6_919_4418">
<rect width="23.8963" height="32.6568" fill="white" transform="translate(0.0078125)"/>
</clipPath>
<clipPath id="clip7_919_4418">
<rect width="23.8963" height="32.6568" fill="white" transform="translate(0.0078125)"/>
</clipPath>
<clipPath id="clip8_919_4418">
<rect width="23.8963" height="32.6568" fill="white" transform="translate(0.0078125)"/>
</clipPath>
</defs>
</svg>
