<svg width="101" height="101" viewBox="0 0 101 101" fill="none" xmlns="http://www.w3.org/2000/svg">
<path d="M75.4452 63.2636C75.1269 62.8626 74.7607 62.5021 74.3546 62.1904C73.9393 61.8633 73.4908 61.5809 73.0164 61.3477C72.0385 60.8659 70.985 60.556 69.902 60.4315C69.3502 60.3684 68.7951 60.339 68.2398 60.3435C67.6782 60.3544 67.1137 60.401 66.5481 60.4679C65.9825 60.534 65.4156 60.6327 64.8485 60.7437C64.5648 60.7977 64.2812 60.8629 63.997 60.923L63.1457 61.1321C61.9477 61.4415 60.7045 61.7799 59.5456 62.1529C58.3717 62.5347 57.2269 63.005 56.0422 63.4901C55.2313 63.8298 54.4034 64.1273 53.5618 64.3814C52.683 64.631 51.7811 64.791 50.87 64.8589C49.9677 64.9195 49.062 64.9063 48.1619 64.8195L47.5012 64.7388L47.1707 64.698C47.1134 64.6904 47.0653 64.686 47.0008 64.6739L46.796 64.63C46.5336 64.5725 46.2758 64.4957 46.0247 64.4002C45.7933 64.3005 45.5538 64.2054 45.3415 64.0872C44.5002 63.6363 43.7295 63.0644 43.0543 62.3896C42.3422 61.7099 41.7602 60.9057 41.3371 60.0168L41.189 59.6361C41.1433 59.5057 41.1051 59.3727 41.0745 59.238C41.0583 59.1726 41.0382 59.0991 41.0264 59.0402L40.9938 58.869L40.9293 58.5265C40.891 58.2956 40.8697 58.0554 40.8406 57.82C40.8255 57.5847 40.8132 57.3496 40.8036 57.1145C40.7932 56.1943 40.8729 55.2752 41.0415 54.3705C41.387 52.6253 41.9361 50.9267 42.6777 49.3095C43.3952 47.7216 44.2243 46.1864 45.1589 44.7156C47.0148 41.8047 49.1407 39.075 51.5083 36.5626C51.8704 36.1773 52.2351 35.7897 52.6069 35.4178L53.1631 34.859L53.6616 34.3267C54.3201 33.6229 54.9076 32.8558 55.4153 32.0365C55.9083 31.2499 56.2877 30.3976 56.5422 29.5049C56.7934 28.6573 56.8696 27.7674 56.7663 26.8894C56.5719 25.16 55.425 23.6359 53.8459 22.6743C53.036 22.1857 52.1525 21.8312 51.2296 21.6243C50.2843 21.4058 49.3175 21.294 48.3473 21.2911C48.1024 21.2965 47.8578 21.2803 47.6125 21.3034L46.8766 21.3525C46.3867 21.415 45.8992 21.4633 45.4013 21.5658C44.9076 21.6498 44.4052 21.7606 43.9063 21.8602C43.4083 21.9668 42.9012 22.048 42.4178 22.1949L40.9532 22.5964C40.4712 22.7509 39.9944 22.9225 39.5145 23.0843C39.276 23.1692 39.033 23.2417 38.7981 23.3366L38.0957 23.6268L37.3931 23.9165C37.1584 24.012 36.9233 24.1066 36.6978 24.223L35.3296 24.8864C35.0984 24.9908 34.8808 25.1215 34.6591 25.2444L33.9958 25.6162L33.3323 25.9878C33.1145 26.1175 32.9043 26.2596 32.6898 26.3948C32.2647 26.6711 31.8317 26.9357 31.4127 27.221C27.7239 29.7785 24.5112 32.9619 21.92 36.627C21.2264 37.5612 20.725 38.3763 20.2399 39.0072L20.0642 39.2382L19.9093 39.463C19.8076 39.608 19.709 39.7434 19.6136 39.8694C19.4227 40.1216 19.244 40.3372 19.0774 40.5199C18.5918 41.0522 18.4038 40.9722 18.5197 40.3588C18.6186 39.9137 18.7528 39.4771 18.9211 39.0533C18.9757 38.9146 19.0259 38.7634 19.0975 38.614C19.17 38.4648 19.2462 38.3082 19.3261 38.1441C19.4888 37.8171 19.6722 37.4638 19.8762 37.0842C21.0093 35.1158 22.3544 33.2775 23.8876 31.6019C27.4064 27.7957 31.6535 24.7345 36.3772 22.6C38.7366 21.5509 41.1999 20.7533 43.7264 20.2204L44.6687 20.0168L45.6244 19.8311C45.9485 19.7807 46.2768 19.739 46.6033 19.6928C46.9312 19.6544 47.2622 19.6355 47.5919 19.6063C48.9295 19.5101 50.2739 19.5937 51.5893 19.8548C51.9539 19.9406 52.3242 20.0113 52.6862 20.1326C52.8676 20.1906 53.0526 20.2372 53.232 20.306L53.7709 20.5141C54.5015 20.8026 55.1938 21.1799 55.8321 21.6377C55.9967 21.7501 56.1542 21.8727 56.3036 22.0046C56.4606 22.1289 56.6103 22.2622 56.752 22.4037L57.1732 22.835L57.5524 23.306C58.0345 23.9489 58.4073 24.6669 58.6559 25.4311C59.0223 26.6327 59.1051 27.9029 58.8979 29.1419C58.6896 30.3299 58.2822 31.4741 57.693 32.5265L57.4824 32.9157C57.4072 33.0416 57.3269 33.1635 57.2492 33.2875C57.0896 33.5318 56.9439 33.7884 56.7665 34.0169C56.5948 34.2504 56.4262 34.487 56.2512 34.7173L55.7001 35.3823C55.5219 35.6091 55.315 35.809 55.1226 36.0226C54.9274 36.2311 54.7277 36.4512 54.5418 36.6345C54.1611 37.0166 53.7889 37.4028 53.4199 37.7894C51.9468 39.34 50.5604 40.9707 49.267 42.6741C47.9776 44.3636 46.803 46.1376 45.7509 47.9842C44.9753 49.3398 44.3181 50.7597 43.7867 52.2282C43.2552 53.6526 42.9494 55.1512 42.8803 56.6699C42.8729 57.0342 42.8885 57.3986 42.927 57.7609C42.9523 57.9394 42.9627 58.1155 43.0052 58.2974L43.0583 58.5686L43.0715 58.6364L43.0862 58.6898L43.1143 58.7951L43.1405 58.9009L43.1824 59.0051C43.2123 59.0747 43.2328 59.1441 43.268 59.2151C43.339 59.3624 43.4182 59.5056 43.5054 59.644C43.6906 59.9393 43.8999 60.2189 44.131 60.4799C44.6129 61.0169 45.16 61.4916 45.7597 61.8929C46.0481 62.0823 46.3514 62.2479 46.6666 62.3883C46.8118 62.4527 46.9605 62.5089 47.1121 62.5564L47.3205 62.6054C47.3386 62.6097 47.3532 62.6146 47.3743 62.6186L47.4458 62.6289L47.5886 62.6513C48.9183 62.903 50.2772 62.9633 51.624 62.8302C52.9461 62.6772 54.2397 62.2487 55.5831 61.7409C56.9212 61.2352 58.3158 60.716 59.7382 60.3191L60.2718 60.1687L60.7963 60.0305L61.8511 59.7584C62.5573 59.5802 63.2705 59.4119 63.9919 59.2634C65.4478 58.9438 66.9325 58.773 68.4229 58.7537C69.9476 58.7278 71.4642 58.9802 72.8982 59.4986C74.3725 60.0061 75.6966 60.8737 76.7506 62.0226C77.2758 62.6142 77.7079 63.2822 78.0322 64.0037C78.1969 64.369 78.33 64.7477 78.4301 65.1357C78.5255 65.5271 78.5855 65.9264 78.6094 66.3286C78.6412 66.9492 78.6031 67.5713 78.4956 68.1833C78.3985 68.7756 78.2594 69.3373 78.1158 69.8804C77.825 70.9656 77.5369 71.9888 77.3403 73.0099C76.9681 74.9854 76.8904 77.005 77.1099 79.0032C77.1503 79.3379 77.1555 79.676 77.1256 80.0118C77.0908 80.2385 77.0174 80.3542 76.9135 80.3505C76.8096 80.3469 76.6776 80.2229 76.5274 79.9706C76.3257 79.6062 76.1719 79.2174 76.0697 78.8137C75.8692 78.0583 75.7185 77.2906 75.6186 76.5154C75.5224 75.7169 75.4887 74.912 75.5179 74.1082C75.5496 73.3004 75.637 72.4958 75.7797 71.7001C75.9166 70.9106 76.0992 70.1462 76.2665 69.4168C76.3351 69.1156 76.4043 68.8221 76.4615 68.533C76.5307 68.245 76.5809 67.9637 76.6275 67.6874C76.7193 67.1669 76.7435 66.6366 76.6994 66.1099C76.65 65.5974 76.5189 65.0961 76.3111 64.6251C76.0972 64.1339 75.8185 63.6736 75.4824 63.2565L75.4452 63.2636Z" fill="url(#paint0_linear_1116_1213)"/>
<path d="M82.0328 75.8556C81.6195 76.3284 81.2286 76.8269 80.851 77.3477C80.6418 77.6203 80.454 77.9088 80.2894 78.2105C79.7425 79.2855 79.2043 80.4072 78.5823 81.4849C78.4798 81.6623 78.338 81.8139 78.168 81.9282C77.9979 82.0426 77.804 82.1166 77.601 82.1446C77.398 82.1727 77.1913 82.154 76.9966 82.0901C76.8019 82.0262 76.6243 81.9186 76.4775 81.7757L76.3654 81.6648L75.0323 80.3512C74.2457 79.5722 73.458 78.8129 72.6435 78.0897C71.831 77.3639 70.9865 76.6739 70.1064 75.9991C69.8442 75.7743 69.6162 75.5125 69.4297 75.2218C69.2345 74.9478 69.2796 74.5338 69.4537 74.0744C69.7068 73.4051 70.2937 72.9209 70.7725 73.0559C71.071 73.1525 71.3402 73.3231 71.5548 73.5519C72.5798 74.5477 73.7048 75.4349 74.9121 76.1994C75.2483 76.4167 75.6259 76.6187 75.8358 76.9547C76.5034 78.0222 77.4794 78.7677 78.2044 79.7421L78.3184 79.8921L76.3691 80.0503C76.8602 79.4146 77.2679 78.7205 77.7247 78.0473C78.5972 76.7588 79.5036 75.413 80.4893 74.1259C80.6827 73.8694 80.9225 73.6514 81.1961 73.4832C81.4991 73.3134 81.8327 73.2052 82.1777 73.1649C82.2498 73.1491 82.3246 73.1505 82.3961 73.169C82.4675 73.1874 82.5337 73.2224 82.5892 73.2711C82.7195 73.3975 82.8065 73.5619 82.8375 73.7407L82.8598 73.9415C82.8588 73.9988 82.8527 74.0559 82.8418 74.1122C82.8284 74.2217 82.8087 74.3303 82.7826 74.4374C82.7169 74.6316 82.641 74.8222 82.5551 75.0083C82.3923 75.2968 82.2066 75.5718 81.9999 75.8305L82.0328 75.8556Z" fill="url(#paint1_linear_1116_1213)"/>
<defs>
<linearGradient id="paint0_linear_1116_1213" x1="27.274" y1="74.9008" x2="82.2458" y2="46.5394" gradientUnits="userSpaceOnUse">
<stop stop-color="#7C3AED"/>
<stop offset="1" stop-color="#DE6B48"/>
</linearGradient>
<linearGradient id="paint1_linear_1116_1213" x1="71.2838" y1="81.3451" x2="81.0564" y2="73.7673" gradientUnits="userSpaceOnUse">
<stop stop-color="#7C3AED"/>
<stop offset="1" stop-color="#DE6B48"/>
</linearGradient>
</defs>
</svg>
