<svg width="21" height="18" viewBox="0 0 21 18" fill="none" xmlns="http://www.w3.org/2000/svg">
<g clip-path="url(#clip0_1116_850)">
<path d="M19.8223 4.36229C19.6014 3.53085 18.9508 2.87603 18.1248 2.6538C16.6275 2.25 10.6234 2.25 10.6234 2.25C10.6234 2.25 4.61946 2.25 3.12212 2.6538C2.29606 2.87606 1.64546 3.53085 1.42464 4.36229C1.02344 5.86934 1.02344 9.01364 1.02344 9.01364C1.02344 9.01364 1.02344 12.1579 1.42464 13.665C1.64546 14.4964 2.29606 15.124 3.12212 15.3462C4.61946 15.75 10.6234 15.75 10.6234 15.75C10.6234 15.75 16.6274 15.75 18.1248 15.3462C18.9508 15.124 19.6014 14.4964 19.8223 13.665C20.2235 12.1579 20.2235 9.01364 20.2235 9.01364C20.2235 9.01364 20.2235 5.86934 19.8223 4.36229ZM8.6598 11.8684V6.15885L13.678 9.01371L8.6598 11.8684Z" fill="#783FD9"/>
</g>
<defs>
<clipPath id="clip0_1116_850">
<rect width="20.25" height="18" fill="white" transform="translate(0.5)"/>
</clipPath>
</defs>
</svg>
